<svg xmlns="http://www.w3.org/2000/svg" viewBox="0 0 18.06 11.82"><defs><style>.cls-1{fill:#9898a8;}.cls-2{fill:#3434e2;}.cls-3{fill:#262691;}.cls-4{fill:#f4e022;}</style></defs><title>Ресурс 1</title><g id="Слой_2" data-name="Слой 2"><g id="Layer_1" data-name="Layer 1"><polygon class="cls-1" points="0.51 10.43 0 10.13 17.55 0 18.06 0.3 0.51 10.43"/><polygon class="cls-1" points="3.44 11.52 2.92 11.82 0 10.13 0.51 9.84 3.44 11.52"/><polygon class="cls-2" points="8.64 6.39 6.9 5.38 7.43 5.08 9.17 6.08 8.64 6.39"/><polygon class="cls-3" points="8.78 6.61 6.93 5.12 7.38 4.95 9.23 6.45 8.78 6.61"/><polygon class="cls-4" points="6.16 4.95 6.97 3.76 6.43 3.76 6.86 2.58 5.96 4.12 6.46 4.12 6.16 4.95"/><polygon class="cls-4" points="7.49 5.6 8.3 4.41 7.76 4.41 8.19 3.23 7.29 4.77 7.79 4.77 7.49 5.6"/><polygon class="cls-4" points="9.14 4.06 9.95 2.88 9.41 2.88 9.84 1.7 8.93 3.23 9.44 3.23 9.14 4.06"/></g></g></svg>