<svg xmlns="http://www.w3.org/2000/svg" xmlns:xlink="http://www.w3.org/1999/xlink" viewBox="0 0 9.9 14.2"><defs><style>.cls-1{fill:#bcbec0;}.cls-2{fill:#a7a9ac;}.cls-3{fill:#231f20;}.cls-4{fill:#414042;}.cls-5{fill:#2b2b2b;}.cls-6{fill:#d1d3d4;}.cls-7{fill:#f1f2f2;}.cls-8{fill:#e6e7e8;}.cls-9{fill:#939598;opacity:0.32;isolation:isolate;}.cls-10{fill:#141414;}.cls-11{fill:#26ed26;}.cls-12{fill:#eae426;}.cls-13{fill:url(#radial-gradient);}.cls-14,.cls-16{opacity:0.5;}.cls-14{fill:url(#radial-gradient-2);}.cls-15{fill:url(#Безымянный_градиент_130);}.cls-16{fill:url(#Безымянный_градиент_126);}</style><radialGradient id="radial-gradient" cx="2.76" cy="5.76" r="1.5" gradientUnits="userSpaceOnUse"><stop offset="0" stop-color="#fff0be"/><stop offset="0.02" stop-color="#fff0bc" stop-opacity="0.98"/><stop offset="0.3" stop-color="#fff0a6" stop-opacity="0.63"/><stop offset="0.55" stop-color="#fff094" stop-opacity="0.36"/><stop offset="0.76" stop-color="#fff087" stop-opacity="0.17"/><stop offset="0.91" stop-color="#fff07f" stop-opacity="0.05"/><stop offset="1" stop-color="#fff07c" stop-opacity="0"/></radialGradient><radialGradient id="radial-gradient-2" cx="2.76" cy="5.76" r="0.67" gradientUnits="userSpaceOnUse"><stop offset="0" stop-color="#fff" stop-opacity="0"/><stop offset="0.37" stop-color="#fff" stop-opacity="0.01"/><stop offset="0.51" stop-color="#fff" stop-opacity="0.03"/><stop offset="0.6" stop-color="#fff" stop-opacity="0.08"/><stop offset="0.68" stop-color="#fff" stop-opacity="0.15"/><stop offset="0.75" stop-color="#fff" stop-opacity="0.23"/><stop offset="0.8" stop-color="#fff" stop-opacity="0.34"/><stop offset="0.86" stop-color="#fff" stop-opacity="0.47"/><stop offset="0.91" stop-color="#fff" stop-opacity="0.61"/><stop offset="0.95" stop-color="#fff" stop-opacity="0.78"/><stop offset="0.99" stop-color="#fff" stop-opacity="0.96"/><stop offset="1" stop-color="#fff"/></radialGradient><radialGradient id="Безымянный_градиент_130" cx="2" cy="5.4" r="1.5" gradientUnits="userSpaceOnUse"><stop offset="0" stop-color="#4bd400"/><stop offset="0.23" stop-color="#54d506" stop-opacity="0.95"/><stop offset="0.36" stop-color="#77db1e" stop-opacity="0.75"/><stop offset="0.59" stop-color="#b1e446" stop-opacity="0.43"/><stop offset="0.78" stop-color="#dbea63" stop-opacity="0.2"/><stop offset="0.92" stop-color="#f5ee75" stop-opacity="0.05"/><stop offset="1" stop-color="#fff07c" stop-opacity="0"/></radialGradient><radialGradient id="Безымянный_градиент_126" cx="2" cy="5.4" r="0.67" gradientUnits="userSpaceOnUse"><stop offset="0" stop-color="#fff" stop-opacity="0"/><stop offset="0.37" stop-color="#fefffe" stop-opacity="0.01"/><stop offset="0.51" stop-color="#fbfffb" stop-opacity="0.03"/><stop offset="0.6" stop-color="#f5fff5" stop-opacity="0.08"/><stop offset="0.68" stop-color="#eeffec" stop-opacity="0.15"/><stop offset="0.75" stop-color="#e3ffe1" stop-opacity="0.23"/><stop offset="0.8" stop-color="#d7ffd4" stop-opacity="0.34"/><stop offset="0.86" stop-color="#c7ffc3" stop-opacity="0.47"/><stop offset="0.91" stop-color="#b6ffb0" stop-opacity="0.61"/><stop offset="0.95" stop-color="#a2ff9b" stop-opacity="0.78"/><stop offset="0.99" stop-color="#8cff84" stop-opacity="0.96"/><stop offset="1" stop-color="#88ff7f"/></radialGradient></defs><title>coffee-maker</title><g id="Слой_2" data-name="Слой 2"><g id="Layer_1" data-name="Layer 1"><g id="g17145"><g id="g17143"><g id="g17141"><polygon id="polygon16789" class="cls-1" points="7.6 12.9 2.3 9.9 2.3 1.3 7.6 4.4 7.6 12.9"/><g id="g16795"><polygon id="polygon16791" class="cls-1" points="7.6 13 2.3 9.9 2.3 9.5 7.6 12.6 7.6 13"/><polygon id="polygon16793" class="cls-2" points="7.6 7.2 2.3 4.1 2.3 1.3 7.6 4.4 7.6 7.2"/></g><g id="g17055"><polygon id="polygon16797" class="cls-3" points="0 10.8 2.3 9.5 7.6 12.6 5.3 13.8 0 10.8"/><polygon id="polygon16799" class="cls-4" points="0.1 10.8 2.3 9.6 7.5 12.6 5.3 13.8 0.1 10.8"/><g id="g17051"><path id="path16801" class="cls-5" d="M2.4,9.9H2.2c-.1,0-.1-.1,0-.1h.2C2.5,9.8,2.5,9.8,2.4,9.9Z"/><path id="path16803" class="cls-5" d="M2.8,10.1H2.6c-.1,0-.1-.1,0-.1h.2C2.9,10,2.9,10.1,2.8,10.1Z"/><path id="path16805" class="cls-5" d="M3.2,10.3H3c-.1,0-.1-.1,0-.1h.2C3.3,10.2,3.3,10.3,3.2,10.3Z"/><path id="path16807" class="cls-5" d="M3.6,10.5H3.4c-.1,0-.1-.1,0-.1h.2Z"/><path id="path16809" class="cls-5" d="M4,10.8H3.8c-.1,0-.1-.1,0-.1H4Z"/><path id="path16811" class="cls-5" d="M4.4,11H4.2c-.1,0-.1-.1,0-.1h.2Z"/><path id="path16813" class="cls-5" d="M4.8,11.2H4.6c-.1,0-.1-.1,0-.1h.2Z"/><path id="path16815" class="cls-5" d="M5.1,11.4H4.9c-.1,0-.1-.1,0-.1h.2C5.2,11.4,5.2,11.4,5.1,11.4Z"/><path id="path16817" class="cls-5" d="M5.5,11.7H5.3c-.1,0-.1-.1,0-.1h.2C5.6,11.6,5.6,11.6,5.5,11.7Z"/><path id="path16819" class="cls-5" d="M5.9,11.9H5.7c-.1,0-.1-.1,0-.1h.2C6,11.8,6,11.9,5.9,11.9Z"/><path id="path16821" class="cls-5" d="M6.3,12.1H6.1c-.1,0-.1-.1,0-.1h.2C6.4,12,6.4,12.1,6.3,12.1Z"/><path id="path16823" class="cls-5" d="M6.7,12.3H6.5c-.1,0-.1-.1,0-.1h.2C6.8,12.3,6.8,12.3,6.7,12.3Z"/><path id="path16825" class="cls-5" d="M7.1,12.6H6.9c-.1,0-.1-.1,0-.1h.2Z"/><path id="path16827" class="cls-5" d="M2.4,10.1H2.2c-.1,0-.1-.1,0-.1h.2C2.5,10,2.5,10.1,2.4,10.1Z"/><path id="path16829" class="cls-5" d="M2.8,10.3H2.6c-.1,0-.1-.1,0-.1h.2C2.9,10.2,2.9,10.3,2.8,10.3Z"/><path id="path16831" class="cls-5" d="M3.2,10.5H3c-.1,0-.1-.1,0-.1h.2C3.3,10.5,3.3,10.5,3.2,10.5Z"/><path id="path16833" class="cls-5" d="M3.6,10.8H3.4c-.1,0-.1-.1,0-.1h.2Z"/><path id="path16835" class="cls-5" d="M4,11H3.8c-.1,0-.1-.1,0-.1H4Z"/><path id="path16837" class="cls-5" d="M4.4,11.2H4.2c-.1,0-.1-.1,0-.1h.2Z"/><path id="path16839" class="cls-5" d="M4.8,11.4H4.6c-.1,0-.1-.1,0-.1h.2Z"/><path id="path16841" class="cls-5" d="M5.1,11.7H4.9c-.1,0-.1-.1,0-.1h.2C5.2,11.6,5.2,11.6,5.1,11.7Z"/><path id="path16843" class="cls-5" d="M5.5,11.9H5.3c-.1,0-.1-.1,0-.1h.2C5.6,11.8,5.6,11.9,5.5,11.9Z"/><path id="path16845" class="cls-5" d="M5.9,12.1H5.7c-.1,0-.1-.1,0-.1h.2C6,12,6,12.1,5.9,12.1Z"/><path id="path16847" class="cls-5" d="M6.3,12.3H6.1c-.1,0-.1-.1,0-.1h.2C6.4,12.3,6.4,12.3,6.3,12.3Z"/><path id="path16849" class="cls-5" d="M6.7,12.6H6.5c-.1,0-.1-.1,0-.1h.2C6.8,12.5,6.8,12.5,6.7,12.6Z"/><path id="path16851" class="cls-5" d="M2,10.1H1.8c-.1,0-.1-.1,0-.1H2C2.1,10,2.1,10.1,2,10.1Z"/><path id="path16853" class="cls-5" d="M2.4,10.3H2.2c-.1,0-.1-.1,0-.1h.2C2.5,10.2,2.5,10.3,2.4,10.3Z"/><path id="path16855" class="cls-5" d="M2.8,10.5H2.6c-.1,0-.1-.1,0-.1h.2C2.9,10.5,2.9,10.5,2.8,10.5Z"/><path id="path16857" class="cls-5" d="M3.2,10.8H3c-.1,0-.1-.1,0-.1h.2C3.3,10.7,3.3,10.7,3.2,10.8Z"/><path id="path16859" class="cls-5" d="M3.6,11H3.4c-.1,0-.1-.1,0-.1h.2Z"/><path id="path16861" class="cls-5" d="M4,11.2H3.8c-.1,0-.1-.1,0-.1H4Z"/><path id="path16863" class="cls-5" d="M4.4,11.4H4.2c-.1,0-.1-.1,0-.1h.2Z"/><path id="path16865" class="cls-5" d="M4.8,11.7H4.6c-.1,0-.1-.1,0-.1h.2Z"/><path id="path16867" class="cls-5" d="M5.2,11.9H5c-.1,0-.1-.1,0-.1h.2Z"/><path id="path16869" class="cls-5" d="M5.5,12.1H5.3c-.1,0-.1-.1,0-.1h.2C5.6,12,5.6,12.1,5.5,12.1Z"/><path id="path16871" class="cls-5" d="M5.9,12.3H5.7c-.1,0-.1-.1,0-.1h.2C6,12.3,6,12.3,5.9,12.3Z"/><path id="path16873" class="cls-5" d="M6.3,12.6H6.1c-.1,0-.1-.1,0-.1h.2C6.4,12.5,6.4,12.5,6.3,12.6Z"/><path id="path16875" class="cls-5" d="M6.7,12.8H6.5c-.1,0-.1-.1,0-.1h.2C6.8,12.7,6.8,12.8,6.7,12.8Z"/><path id="path16877" class="cls-5" d="M2,10.3H1.8c-.1,0-.1-.1,0-.1H2C2.1,10.2,2.1,10.3,2,10.3Z"/><path id="path16879" class="cls-5" d="M2.4,10.5H2.2c-.1,0-.1-.1,0-.1h.2C2.5,10.5,2.5,10.5,2.4,10.5Z"/><path id="path16881" class="cls-5" d="M2.8,10.8H2.6c-.1,0-.1-.1,0-.1h.2C2.9,10.7,2.9,10.7,2.8,10.8Z"/><path id="path16883" class="cls-5" d="M3.2,11H3c-.1,0-.1-.1,0-.1h.2C3.3,10.9,3.3,11,3.2,11Z"/><path id="path16885" class="cls-5" d="M3.6,11.2H3.4c-.1,0-.1-.1,0-.1h.2Z"/><path id="path16887" class="cls-5" d="M4,11.4H3.8c-.1,0-.1-.1,0-.1H4Z"/><path id="path16889" class="cls-5" d="M4.4,11.7H4.2c-.1,0-.1-.1,0-.1h.2Z"/><path id="path16891" class="cls-5" d="M4.8,11.9H4.6c-.1,0-.1-.1,0-.1h.2Z"/><path id="path16893" class="cls-5" d="M5.2,12.1H5c-.1,0-.1-.1,0-.1h.2Z"/><path id="path16895" class="cls-5" d="M5.5,12.3H5.3c-.1,0-.1-.1,0-.1h.2C5.6,12.3,5.6,12.3,5.5,12.3Z"/><path id="path16897" class="cls-5" d="M5.9,12.6H5.7c-.1,0-.1-.1,0-.1h.2C6,12.5,6,12.5,5.9,12.6Z"/><path id="path16899" class="cls-5" d="M6.3,12.8H6.1c-.1,0-.1-.1,0-.1h.2C6.4,12.7,6.4,12.8,6.3,12.8Z"/><path id="path16901" class="cls-5" d="M1.6,10.3H1.4c-.1,0-.1-.1,0-.1h.2C1.7,10.2,1.7,10.3,1.6,10.3Z"/><path id="path16903" class="cls-5" d="M2,10.5H1.8c-.1,0-.1-.1,0-.1H2C2.1,10.5,2.1,10.5,2,10.5Z"/><path id="path16905" class="cls-5" d="M2.4,10.8H2.2c-.1,0-.1-.1,0-.1h.2C2.5,10.7,2.5,10.7,2.4,10.8Z"/><path id="path16907" class="cls-5" d="M2.8,11H2.6c-.1,0-.1-.1,0-.1h.2C2.9,10.9,2.9,11,2.8,11Z"/><path id="path16909" class="cls-5" d="M3.2,11.2H3c-.1,0-.1-.1,0-.1h.2C3.3,11.1,3.3,11.2,3.2,11.2Z"/><path id="path16911" class="cls-5" d="M3.6,11.4H3.4c-.1,0-.1-.1,0-.1h.2Z"/><path id="path16913" class="cls-5" d="M4,11.7H3.8c-.1,0-.1-.1,0-.1H4Z"/><path id="path16915" class="cls-5" d="M4.4,11.9H4.2c-.1,0-.1-.1,0-.1h.2Z"/><path id="path16917" class="cls-5" d="M4.8,12.1H4.6c-.1,0-.1-.1,0-.1h.2Z"/><path id="path16919" class="cls-5" d="M5.2,12.3H5c-.1,0-.1-.1,0-.1h.2Z"/><path id="path16921" class="cls-5" d="M5.5,12.6H5.3c-.1,0-.1-.1,0-.1h.2C5.6,12.5,5.6,12.5,5.5,12.6Z"/><path id="path16923" class="cls-5" d="M5.9,12.8H5.7c-.1,0-.1-.1,0-.1h.2C6,12.7,6,12.8,5.9,12.8Z"/><path id="path16925" class="cls-5" d="M6.3,13H6.1c-.1,0-.1-.1,0-.1h.2C6.4,12.9,6.4,13,6.3,13Z"/><path id="path16927" class="cls-5" d="M1.6,10.5H1.4c-.1,0-.1-.1,0-.1h.2C1.7,10.5,1.7,10.5,1.6,10.5Z"/><path id="path16929" class="cls-5" d="M2,10.8H1.8c-.1,0-.1-.1,0-.1H2C2.1,10.7,2.1,10.7,2,10.8Z"/><path id="path16931" class="cls-5" d="M2.4,11H2.2c-.1,0-.1-.1,0-.1h.2C2.5,10.9,2.5,11,2.4,11Z"/><path id="path16933" class="cls-5" d="M2.8,11.2H2.6c-.1,0-.1-.1,0-.1h.2C2.9,11.1,2.9,11.2,2.8,11.2Z"/><path id="path16935" class="cls-5" d="M3.2,11.4H3c-.1,0-.1-.1,0-.1h.2C3.3,11.4,3.3,11.4,3.2,11.4Z"/><path id="path16937" class="cls-5" d="M3.6,11.7H3.4c-.1,0-.1-.1,0-.1h.2Z"/><path id="path16939" class="cls-5" d="M4,11.9H3.8c-.1,0-.1-.1,0-.1H4Z"/><path id="path16941" class="cls-5" d="M4.4,12.1H4.2c-.1,0-.1-.1,0-.1h.2Z"/><path id="path16943" class="cls-5" d="M4.8,12.3H4.6c-.1,0-.1-.1,0-.1h.2Z"/><path id="path16945" class="cls-5" d="M5.2,12.6H5c-.1,0-.1-.1,0-.1h.2Z"/><path id="path16947" class="cls-5" d="M5.5,12.8H5.3c-.1,0-.1-.1,0-.1h.2C5.6,12.7,5.6,12.8,5.5,12.8Z"/><path id="path16949" class="cls-5" d="M5.9,13H5.7c-.1,0-.1-.1,0-.1h.2C6,12.9,6,13,5.9,13Z"/><path id="path16951" class="cls-5" d="M1.3,10.5H1.1c-.1,0-.1-.1,0-.1h.2Z"/><path id="path16953" class="cls-5" d="M1.7,10.8H1.5c-.1,0-.1-.1,0-.1h.2Z"/><path id="path16955" class="cls-5" d="M2,11H1.8c-.1,0-.1-.1,0-.1H2C2.1,10.9,2.1,11,2,11Z"/><path id="path16957" class="cls-5" d="M2.4,11.2H2.2c-.1,0-.1-.1,0-.1h.2C2.5,11.1,2.5,11.2,2.4,11.2Z"/><path id="path16959" class="cls-5" d="M2.8,11.4H2.6c-.1,0-.1-.1,0-.1h.2C2.9,11.4,2.9,11.4,2.8,11.4Z"/><path id="path16961" class="cls-5" d="M3.2,11.7H3c-.1,0-.1-.1,0-.1h.2C3.3,11.6,3.3,11.6,3.2,11.7Z"/><path id="path16963" class="cls-5" d="M3.6,11.9H3.4c-.1,0-.1-.1,0-.1h.2C3.7,11.8,3.7,11.9,3.6,11.9Z"/><path id="path16965" class="cls-5" d="M4,12.1H3.8c-.1,0-.1-.1,0-.1H4Z"/><path id="path16967" class="cls-5" d="M4.4,12.3H4.2c-.1,0-.1-.1,0-.1h.2Z"/><path id="path16969" class="cls-5" d="M4.8,12.6H4.6c-.1,0-.1-.1,0-.1h.2Z"/><path id="path16971" class="cls-5" d="M5.2,12.8H5c-.1,0-.1-.1,0-.1h.2Z"/><path id="path16973" class="cls-5" d="M5.5,13H5.3c-.1,0-.1-.1,0-.1h.2C5.6,12.9,5.6,13,5.5,13Z"/><path id="path16975" class="cls-5" d="M5.9,13.2H5.7c-.1,0-.1-.1,0-.1h.2C6,13.2,6,13.2,5.9,13.2Z"/><path id="path16977" class="cls-5" d="M1.3,10.8H1.1c-.1,0-.1-.1,0-.1h.2Z"/><path id="path16979" class="cls-5" d="M1.7,11H1.5c-.1,0-.1-.1,0-.1h.2Z"/><path id="path16981" class="cls-5" d="M2,11.2H1.8c-.1,0-.1-.1,0-.1H2C2.1,11.1,2.1,11.2,2,11.2Z"/><path id="path16983" class="cls-5" d="M2.4,11.4H2.2c-.1,0-.1-.1,0-.1h.2C2.5,11.4,2.5,11.4,2.4,11.4Z"/><path id="path16985" class="cls-5" d="M2.8,11.7H2.6c-.1,0-.1-.1,0-.1h.2C2.9,11.6,2.9,11.6,2.8,11.7Z"/><path id="path16987" class="cls-5" d="M3.2,11.9H3c-.1,0-.1-.1,0-.1h.2C3.3,11.8,3.3,11.9,3.2,11.9Z"/><path id="path16989" class="cls-5" d="M3.6,12.1H3.4c-.1,0-.1-.1,0-.1h.2C3.7,12,3.7,12.1,3.6,12.1Z"/><path id="path16991" class="cls-5" d="M4,12.3H3.8c-.1,0-.1-.1,0-.1H4Z"/><path id="path16993" class="cls-5" d="M4.4,12.6H4.2c-.1,0-.1-.1,0-.1h.2Z"/><path id="path16995" class="cls-5" d="M4.8,12.8H4.6c-.1,0-.1-.1,0-.1h.2Z"/><path id="path16997" class="cls-5" d="M5.2,13H5c-.1,0-.1-.1,0-.1h.2Z"/><path id="path16999" class="cls-5" d="M5.5,13.2H5.3c-.1,0-.1-.1,0-.1h.2C5.6,13.2,5.6,13.2,5.5,13.2Z"/><path id="path17001" class="cls-5" d="M.9,10.8H.7c-.1,0-.1-.1,0-.1H.9Z"/><path id="path17003" class="cls-5" d="M1.3,11H1.1c-.1,0-.1-.1,0-.1h.2Z"/><path id="path17005" class="cls-5" d="M1.7,11.2H1.5c-.1,0-.1-.1,0-.1h.2Z"/><path id="path17007" class="cls-5" d="M2,11.4H1.8c-.1,0-.1-.1,0-.1H2C2.1,11.4,2.1,11.4,2,11.4Z"/><path id="path17009" class="cls-5" d="M2.4,11.7H2.2c-.1,0-.1-.1,0-.1h.2C2.5,11.6,2.5,11.6,2.4,11.7Z"/><path id="path17011" class="cls-5" d="M2.8,11.9H2.6c-.1,0-.1-.1,0-.1h.2C2.9,11.8,2.9,11.9,2.8,11.9Z"/><path id="path17013" class="cls-5" d="M3.2,12.1H3c-.1,0-.1-.1,0-.1h.2C3.3,12,3.3,12.1,3.2,12.1Z"/><path id="path17015" class="cls-5" d="M3.6,12.3H3.4c-.1,0-.1-.1,0-.1h.2C3.7,12.3,3.7,12.3,3.6,12.3Z"/><path id="path17017" class="cls-5" d="M4,12.6H3.8c-.1,0-.1-.1,0-.1H4Z"/><path id="path17019" class="cls-5" d="M4.4,12.8H4.2c-.1,0-.1-.1,0-.1h.2Z"/><path id="path17021" class="cls-5" d="M4.8,13H4.6c-.1,0-.1-.1,0-.1h.2Z"/><path id="path17023" class="cls-5" d="M5.2,13.2H5c-.1,0-.1-.1,0-.1h.2Z"/><path id="path17025" class="cls-5" d="M5.5,13.5H5.3c-.1,0-.1-.1,0-.1h.2C5.6,13.4,5.6,13.4,5.5,13.5Z"/><path id="path17027" class="cls-5" d="M.9,11H.7c-.1,0-.1-.1,0-.1H.9C1,10.9.9,11,.9,11Z"/><path id="path17029" class="cls-5" d="M1.3,11.2H1.1c-.1,0-.1-.1,0-.1h.2Z"/><path id="path17031" class="cls-5" d="M1.7,11.4H1.5c-.1,0-.1-.1,0-.1h.2Z"/><path id="path17033" class="cls-5" d="M2,11.7H1.8c-.1,0-.1-.1,0-.1H2C2.1,11.6,2.1,11.6,2,11.7Z"/><path id="path17035" class="cls-5" d="M2.4,11.9H2.2c-.1,0-.1-.1,0-.1h.2C2.5,11.8,2.5,11.9,2.4,11.9Z"/><path id="path17037" class="cls-5" d="M2.8,12.1H2.6c-.1,0-.1-.1,0-.1h.2C2.9,12,2.9,12.1,2.8,12.1Z"/><path id="path17039" class="cls-5" d="M3.2,12.3H3c-.1,0-.1-.1,0-.1h.2C3.3,12.3,3.3,12.3,3.2,12.3Z"/><path id="path17041" class="cls-5" d="M3.6,12.6H3.4c-.1,0-.1-.1,0-.1h.2C3.7,12.5,3.7,12.5,3.6,12.6Z"/><path id="path17043" class="cls-5" d="M4,12.8H3.8c-.1,0-.1-.1,0-.1H4Z"/><path id="path17045" class="cls-5" d="M4.4,13H4.2c-.1,0-.1-.1,0-.1h.2Z"/><path id="path17047" class="cls-5" d="M4.8,13.2H4.6c-.1,0-.1-.1,0-.1h.2Z"/><path id="path17049" class="cls-5" d="M5.2,13.5H5c-.1,0-.1-.1,0-.1h.2Z"/></g><polygon id="polygon17053" class="cls-3" points="5.3 14.2 0 11.2 0 10.8 5.3 13.8 5.3 14.2"/></g><g id="g17069"><g id="g17061"><path id="path17057" class="cls-3" d="M3.2,8.1h0V7.2H3a.85.85,0,0,0-.7,0H2.1V8h0c0,.1,0,.1.1.2a.85.85,0,0,0,.7,0c.2,0,.3,0,.3-.1Z"/><path id="path17059" class="cls-6" d="M3,7.4a.85.85,0,0,1-.7,0,.21.21,0,0,1,0-.4A.85.85,0,0,1,3,7,.21.21,0,0,1,3,7.4Z"/></g><g id="g17067"><path id="path17063" class="cls-4" d="M3.6,7h0V6.2h0A.22.22,0,0,0,3.4,6,1.48,1.48,0,0,0,2.1,6c-.1.1-.2.1-.2.2h0V7h0a.54.54,0,0,0,.3.4,1.48,1.48,0,0,0,1.3,0c0-.1.1-.2.1-.4Z"/><path id="path17065" class="cls-6" d="M3.3,6.6A1.48,1.48,0,0,1,2,6.6c-.4-.2-.4-.5,0-.7a1.48,1.48,0,0,1,1.3,0C3.7,6.1,3.7,6.4,3.3,6.6Z"/></g></g><g id="g17083"><g id="g17075"><path id="path17071" class="cls-3" d="M5.5,9.4h0V8.5H5.3a.85.85,0,0,0-.7,0H4.4v.8h0c0,.1,0,.1.1.2a.85.85,0,0,0,.7,0c.3.1.3,0,.3-.1Z"/><path id="path17073" class="cls-6" d="M5.4,8.8a.85.85,0,0,1-.7,0,.21.21,0,0,1,0-.4.85.85,0,0,1,.7,0A.3.3,0,0,1,5.4,8.8Z"/></g><g id="g17081"><path id="path17077" class="cls-4" d="M5.9,8.4h0V7.6h0a.22.22,0,0,0-.2-.2,1.48,1.48,0,0,0-1.3,0c-.1.1-.2.1-.2.2h0v.8h0a.54.54,0,0,0,.3.4,1.48,1.48,0,0,0,1.3,0c0-.2.1-.3.1-.4Z"/><path id="path17079" class="cls-6" d="M5.7,7.9a1.48,1.48,0,0,1-1.3,0c-.4-.2-.4-.5,0-.7a1.48,1.48,0,0,1,1.3,0A.38.38,0,0,1,5.7,7.9Z"/></g></g><g id="g17089"><polygon id="polygon17085" class="cls-2" points="5.3 8.5 0 5.4 0 2.6 5.3 5.7 5.3 8.5"/><polygon id="polygon17087" class="cls-6" points="0.1 5.4 0.1 2.7 5.3 5.7 5.3 8.4 0.1 5.4"/></g><polygon id="polygon17091" class="cls-7" points="4.6 0 2.3 1.3 0 2.6 5.3 5.7 7.6 4.4 9.9 3.1 4.6 0"/><polygon id="polygon17093" class="cls-8" points="7.6 4.4 5.3 5.7 5.3 8.5 7.6 7.2 7.6 12.9 9.9 11.6 9.9 3.1 7.6 4.4"/><polygon id="polygon17095" class="cls-5" points="5.3 14.2 9.9 11.7 9.9 11.3 5.3 13.8 5.3 14.2"/><g id="g17111"><path id="path17097" class="cls-1" d="M5,3.7a2.92,2.92,0,0,1-.9-.2.35.35,0,0,1-.2-.1c-.1,0-.1-.1-.2-.1a.86.86,0,0,1-.3-.6.74.74,0,0,1,.5-.6A2,2,0,0,1,5,1.8a2.92,2.92,0,0,1,.9.2.35.35,0,0,1,.2.1c.1,0,.1.1.2.1a.86.86,0,0,1,.3.6.74.74,0,0,1-.5.6A1.61,1.61,0,0,1,5,3.7Z"/><path id="path17099" class="cls-9" d="M6.3,2.2c-.1,0-.1-.1-.2-.1S6,2,5.9,2a2.32,2.32,0,0,0-2,.1.71.71,0,0,0-.2,1.2c.1,0,.1.1.2.1s.1.1.2.1a2.32,2.32,0,0,0,2-.1C6.7,3.1,6.8,2.6,6.3,2.2Z"/><g id="g17109"><g id="g17105"><path id="path17101" class="cls-8" d="M6.1,3.4a2.48,2.48,0,0,1-1.9.1c-.1,0-.1-.1-.2-.1s-.1-.1-.2-.1c-.4-.3-.3-.8.2-1.1a2.48,2.48,0,0,1,1.9-.1c.1,0,.1.1.2.1s.1.1.2.1A.67.67,0,0,1,6.1,3.4Z"/><path id="path17103" class="cls-7" d="M6.3,2.2c-.1,0-.1-.1-.2-.1S6,2,5.9,2a2.32,2.32,0,0,0-2,.1.71.71,0,0,0-.2,1.2c.1,0,.1.1.2.1s.1.1.2.1a2.32,2.32,0,0,0,2-.1C6.7,3.1,6.8,2.6,6.3,2.2ZM4,2.2a2.48,2.48,0,0,1,1.9-.1l-2,1.2C3.4,2.9,3.5,2.5,4,2.2Zm.2,1.3,2-1.2c.4.3.3.8-.2,1.1A2.7,2.7,0,0,1,4.2,3.5Z"/></g><path id="path17107" class="cls-6" d="M6.2,2.3a3.18,3.18,0,0,1-1,1,1.3,1.3,0,0,1-1,.2l2-1.2Z"/></g></g><g id="g17139"><g id="g17119"><path id="path17113" class="cls-2" d="M.7,4.3H.6l.2-.1H.9a.1.1,0,0,1,.1.1H1v.1a.37.37,0,0,1-.1.3l-.2.1c.1,0,.1-.1.1-.3V4.4h0V4.3h0V4.2h0V4.1h0A.1.1,0,0,0,.7,4h0L.6,3.9H.5c.3.5.3.4.2.4Z"/><g id="g17117"><path id="path17115" class="cls-1" d="M.8,4.3c-.2-.1-.4,0-.4.2a.84.84,0,0,0,.4.7c.2.1.4,0,.4-.2A1.27,1.27,0,0,0,.8,4.3Z"/></g></g><g id="g17127"><path id="path17121" class="cls-2" d="M3.9,6.1H3.8L4,6h.1a.1.1,0,0,1,.1.1h0v.1a.37.37,0,0,1-.1.3l-.2.1c.1,0,.1-.1.1-.3V6.2H4V6.1H4V6H4V5.9H4a.1.1,0,0,0-.1-.1h0l-.1-.1H3.7c.3.5.3.5.2.4Z"/><g id="g17125"><path id="path17123" class="cls-1" d="M4,6.2c-.2-.1-.4,0-.4.2a.84.84,0,0,0,.4.7c.2.1.4,0,.4-.2A.84.84,0,0,0,4,6.2Z"/></g></g><path id="path17129" class="cls-10" d="M1.7,4.8v.9l1.4.8V5.6Z"/><g id="g17133"><path id="path17131" class="cls-11" d="M2,5.2c-.1-.1-.2,0-.2.1s.1.3.2.3.2,0,.2-.1S2.1,5.2,2,5.2Z"/></g><g id="g17137"><path id="path17135" class="cls-12" d="M2.7,5.6c-.1-.1-.2,0-.2.1s.1.3.2.3.2,0,.2-.1S2.8,5.6,2.7,5.6Z"/></g></g><circle class="cls-13" cx="2.76" cy="5.76" r="1.5"/><circle class="cls-14" cx="2.76" cy="5.76" r="0.67"/><circle class="cls-15" cx="2" cy="5.4" r="1.5"/><circle class="cls-16" cx="2" cy="5.4" r="0.67"/></g></g></g></g></g></svg>