<svg xmlns="http://www.w3.org/2000/svg" viewBox="0 0 9.89 14.21"><defs><style>.cls-1{fill:#bcbec0;}.cls-2{fill:#a7a9ac;}.cls-3{fill:#231f20;}.cls-4{fill:#414042;}.cls-5{fill:#2b2b2b;}.cls-6{fill:#d1d3d4;}.cls-7{fill:#f1f2f2;}.cls-8{fill:#e6e7e8;}.cls-9{fill:#939598;opacity:0.32;}.cls-10{fill:#141414;}.cls-11{fill:#26ed26;}.cls-12{fill:#eae426;}</style></defs><title>Ресурс 11</title><g id="Слой_2" data-name="Слой 2"><g id="Layer_1" data-name="Layer 1"><polygon class="cls-1" points="7.63 12.91 2.3 9.84 2.3 1.29 7.63 4.37 7.63 12.91"/><polygon class="cls-1" points="7.62 12.92 2.29 9.84 2.29 9.45 7.62 12.53 7.62 12.92"/><polygon class="cls-2" points="7.63 7.18 2.3 4.1 2.3 1.31 7.63 4.38 7.63 7.18"/><polygon class="cls-3" points="0 10.74 2.29 9.45 7.62 12.53 5.33 13.82 0 10.74"/><polygon class="cls-4" points="0.13 10.74 2.29 9.53 7.49 12.53 5.33 13.74 0.13 10.74"/><path class="cls-5" d="M2.42,9.84a.21.21,0,0,1-.19,0,.06.06,0,0,1,0-.11.21.21,0,0,1,.19,0A.06.06,0,0,1,2.42,9.84Z"/><path class="cls-5" d="M2.81,10.06a.21.21,0,0,1-.19,0,.06.06,0,0,1,0-.11.21.21,0,0,1,.19,0A.06.06,0,0,1,2.81,10.06Z"/><path class="cls-5" d="M3.2,10.29a.21.21,0,0,1-.19,0,.06.06,0,0,1,0-.11.21.21,0,0,1,.19,0A.06.06,0,0,1,3.2,10.29Z"/><path class="cls-5" d="M3.59,10.51a.21.21,0,0,1-.19,0,.06.06,0,0,1,0-.11.21.21,0,0,1,.19,0A.06.06,0,0,1,3.59,10.51Z"/><path class="cls-5" d="M4,10.73a.21.21,0,0,1-.19,0,.06.06,0,0,1,0-.11.21.21,0,0,1,.19,0A.06.06,0,0,1,4,10.73Z"/><path class="cls-5" d="M4.36,11a.21.21,0,0,1-.19,0,.06.06,0,0,1,0-.11.21.21,0,0,1,.19,0C4.42,10.88,4.42,10.93,4.36,11Z"/><path class="cls-5" d="M4.75,11.18a.21.21,0,0,1-.19,0,.06.06,0,0,1,0-.11.21.21,0,0,1,.19,0A.06.06,0,0,1,4.75,11.18Z"/><path class="cls-5" d="M5.14,11.41a.21.21,0,0,1-.19,0,.06.06,0,0,1,0-.11.21.21,0,0,1,.19,0A.06.06,0,0,1,5.14,11.41Z"/><path class="cls-5" d="M5.53,11.63a.21.21,0,0,1-.19,0,.06.06,0,0,1,0-.11.21.21,0,0,1,.19,0A.06.06,0,0,1,5.53,11.63Z"/><path class="cls-5" d="M5.92,11.86a.21.21,0,0,1-.19,0,.06.06,0,0,1,0-.11.21.21,0,0,1,.19,0A.06.06,0,0,1,5.92,11.86Z"/><path class="cls-5" d="M6.31,12.08a.21.21,0,0,1-.19,0,.06.06,0,0,1,0-.11.21.21,0,0,1,.19,0A.06.06,0,0,1,6.31,12.08Z"/><path class="cls-5" d="M6.7,12.31a.21.21,0,0,1-.19,0,.06.06,0,0,1,0-.11.21.21,0,0,1,.19,0A.06.06,0,0,1,6.7,12.31Z"/><path class="cls-5" d="M7.09,12.53a.21.21,0,0,1-.19,0,.06.06,0,0,1,0-.11.21.21,0,0,1,.19,0A.06.06,0,0,1,7.09,12.53Z"/><path class="cls-5" d="M2.42,10.06a.21.21,0,0,1-.19,0c-.05,0-.05-.08,0-.11a.21.21,0,0,1,.19,0A.06.06,0,0,1,2.42,10.06Z"/><path class="cls-5" d="M2.81,10.28a.21.21,0,0,1-.19,0,.06.06,0,0,1,0-.11.21.21,0,0,1,.19,0A.06.06,0,0,1,2.81,10.28Z"/><path class="cls-5" d="M3.2,10.51a.21.21,0,0,1-.19,0,.06.06,0,0,1,0-.11.21.21,0,0,1,.19,0A.06.06,0,0,1,3.2,10.51Z"/><path class="cls-5" d="M3.59,10.73a.21.21,0,0,1-.19,0,.06.06,0,0,1,0-.11.21.21,0,0,1,.19,0A.06.06,0,0,1,3.59,10.73Z"/><path class="cls-5" d="M4,11a.21.21,0,0,1-.19,0,.06.06,0,0,1,0-.11.21.21,0,0,1,.19,0A.06.06,0,0,1,4,11Z"/><path class="cls-5" d="M4.37,11.18a.21.21,0,0,1-.19,0,.06.06,0,0,1,0-.11.21.21,0,0,1,.19,0A.06.06,0,0,1,4.37,11.18Z"/><path class="cls-5" d="M4.75,11.41a.21.21,0,0,1-.19,0,.06.06,0,0,1,0-.11.21.21,0,0,1,.19,0A.06.06,0,0,1,4.75,11.41Z"/><path class="cls-5" d="M5.14,11.63a.21.21,0,0,1-.19,0,.06.06,0,0,1,0-.11.21.21,0,0,1,.19,0A.06.06,0,0,1,5.14,11.63Z"/><path class="cls-5" d="M5.53,11.86a.21.21,0,0,1-.19,0,.06.06,0,0,1,0-.11.21.21,0,0,1,.19,0A.06.06,0,0,1,5.53,11.86Z"/><path class="cls-5" d="M5.92,12.08a.21.21,0,0,1-.19,0,.06.06,0,0,1,0-.11.21.21,0,0,1,.19,0A.06.06,0,0,1,5.92,12.08Z"/><path class="cls-5" d="M6.31,12.31a.21.21,0,0,1-.19,0,.06.06,0,0,1,0-.11.21.21,0,0,1,.19,0A.06.06,0,0,1,6.31,12.31Z"/><path class="cls-5" d="M6.7,12.53a.21.21,0,0,1-.19,0,.06.06,0,0,1,0-.11.21.21,0,0,1,.19,0A.06.06,0,0,1,6.7,12.53Z"/><path class="cls-5" d="M2,10.06a.21.21,0,0,1-.19,0,.06.06,0,0,1,0-.11.21.21,0,0,1,.19,0A.06.06,0,0,1,2,10.06Z"/><path class="cls-5" d="M2.42,10.28a.21.21,0,0,1-.19,0,.06.06,0,0,1,0-.11.21.21,0,0,1,.19,0A.06.06,0,0,1,2.42,10.28Z"/><path class="cls-5" d="M2.81,10.51a.21.21,0,0,1-.19,0,.06.06,0,0,1,0-.11.21.21,0,0,1,.19,0A.06.06,0,0,1,2.81,10.51Z"/><path class="cls-5" d="M3.2,10.73a.21.21,0,0,1-.19,0,.06.06,0,0,1,0-.11.21.21,0,0,1,.19,0A.06.06,0,0,1,3.2,10.73Z"/><path class="cls-5" d="M3.59,11a.21.21,0,0,1-.19,0,.06.06,0,0,1,0-.11.21.21,0,0,1,.19,0A.06.06,0,0,1,3.59,11Z"/><path class="cls-5" d="M4,11.18a.21.21,0,0,1-.19,0,.06.06,0,0,1,0-.11.21.21,0,0,1,.19,0A.06.06,0,0,1,4,11.18Z"/><path class="cls-5" d="M4.37,11.41a.21.21,0,0,1-.19,0,.06.06,0,0,1,0-.11.21.21,0,0,1,.19,0A.06.06,0,0,1,4.37,11.41Z"/><path class="cls-5" d="M4.76,11.63a.21.21,0,0,1-.19,0,.06.06,0,0,1,0-.11.21.21,0,0,1,.19,0A.06.06,0,0,1,4.76,11.63Z"/><path class="cls-5" d="M5.15,11.86a.21.21,0,0,1-.19,0,.06.06,0,0,1,0-.11.21.21,0,0,1,.19,0A.06.06,0,0,1,5.15,11.86Z"/><path class="cls-5" d="M5.53,12.08a.21.21,0,0,1-.19,0,.06.06,0,0,1,0-.11.21.21,0,0,1,.19,0A.06.06,0,0,1,5.53,12.08Z"/><path class="cls-5" d="M5.92,12.31a.21.21,0,0,1-.19,0,.06.06,0,0,1,0-.11.21.21,0,0,1,.19,0A.06.06,0,0,1,5.92,12.31Z"/><path class="cls-5" d="M6.31,12.53a.21.21,0,0,1-.19,0,.06.06,0,0,1,0-.11.21.21,0,0,1,.19,0A.06.06,0,0,1,6.31,12.53Z"/><path class="cls-5" d="M6.7,12.76a.21.21,0,0,1-.19,0,.06.06,0,0,1,0-.11.21.21,0,0,1,.19,0A.06.06,0,0,1,6.7,12.76Z"/><path class="cls-5" d="M2,10.28a.21.21,0,0,1-.19,0,.06.06,0,0,1,0-.11.21.21,0,0,1,.19,0A.06.06,0,0,1,2,10.28Z"/><path class="cls-5" d="M2.42,10.51a.21.21,0,0,1-.19,0,.06.06,0,0,1,0-.11.21.21,0,0,1,.19,0A.06.06,0,0,1,2.42,10.51Z"/><path class="cls-5" d="M2.81,10.73a.21.21,0,0,1-.19,0,.06.06,0,0,1,0-.11.21.21,0,0,1,.19,0A.06.06,0,0,1,2.81,10.73Z"/><path class="cls-5" d="M3.2,11A.21.21,0,0,1,3,11a.06.06,0,0,1,0-.11.21.21,0,0,1,.19,0A.06.06,0,0,1,3.2,11Z"/><path class="cls-5" d="M3.59,11.18a.21.21,0,0,1-.19,0,.06.06,0,0,1,0-.11.21.21,0,0,1,.19,0A.06.06,0,0,1,3.59,11.18Z"/><path class="cls-5" d="M4,11.41a.21.21,0,0,1-.19,0,.06.06,0,0,1,0-.11.21.21,0,0,1,.19,0A.06.06,0,0,1,4,11.41Z"/><path class="cls-5" d="M4.37,11.63a.21.21,0,0,1-.19,0,.06.06,0,0,1,0-.11.21.21,0,0,1,.19,0A.06.06,0,0,1,4.37,11.63Z"/><path class="cls-5" d="M4.76,11.86a.21.21,0,0,1-.19,0c-.05,0-.05-.08,0-.11a.21.21,0,0,1,.19,0A.06.06,0,0,1,4.76,11.86Z"/><path class="cls-5" d="M5.15,12.08a.21.21,0,0,1-.19,0A.06.06,0,0,1,5,12a.21.21,0,0,1,.19,0A.06.06,0,0,1,5.15,12.08Z"/><path class="cls-5" d="M5.54,12.31a.21.21,0,0,1-.19,0,.06.06,0,0,1,0-.11.21.21,0,0,1,.19,0A.06.06,0,0,1,5.54,12.31Z"/><path class="cls-5" d="M5.93,12.53a.21.21,0,0,1-.19,0,.06.06,0,0,1,0-.11.21.21,0,0,1,.19,0A.06.06,0,0,1,5.93,12.53Z"/><path class="cls-5" d="M6.31,12.76a.21.21,0,0,1-.19,0c-.05,0-.05-.08,0-.11a.21.21,0,0,1,.19,0A.06.06,0,0,1,6.31,12.76Z"/><path class="cls-5" d="M1.64,10.28a.21.21,0,0,1-.19,0,.06.06,0,0,1,0-.11.21.21,0,0,1,.19,0A.06.06,0,0,1,1.64,10.28Z"/><path class="cls-5" d="M2,10.51a.21.21,0,0,1-.19,0,.06.06,0,0,1,0-.11.21.21,0,0,1,.19,0A.06.06,0,0,1,2,10.51Z"/><path class="cls-5" d="M2.42,10.73a.21.21,0,0,1-.19,0,.06.06,0,0,1,0-.11.21.21,0,0,1,.19,0A.06.06,0,0,1,2.42,10.73Z"/><path class="cls-5" d="M2.81,11a.21.21,0,0,1-.19,0,.06.06,0,0,1,0-.11.21.21,0,0,1,.19,0A.06.06,0,0,1,2.81,11Z"/><path class="cls-5" d="M3.2,11.18a.21.21,0,0,1-.19,0,.06.06,0,0,1,0-.11.21.21,0,0,1,.19,0A.06.06,0,0,1,3.2,11.18Z"/><path class="cls-5" d="M3.59,11.41a.21.21,0,0,1-.19,0,.06.06,0,0,1,0-.11.21.21,0,0,1,.19,0A.06.06,0,0,1,3.59,11.41Z"/><path class="cls-5" d="M4,11.63a.21.21,0,0,1-.19,0,.06.06,0,0,1,0-.11.21.21,0,0,1,.19,0A.06.06,0,0,1,4,11.63Z"/><path class="cls-5" d="M4.37,11.86a.21.21,0,0,1-.19,0,.06.06,0,0,1,0-.11.21.21,0,0,1,.19,0A.06.06,0,0,1,4.37,11.86Z"/><path class="cls-5" d="M4.76,12.08a.21.21,0,0,1-.19,0,.06.06,0,0,1,0-.11.21.21,0,0,1,.19,0A.06.06,0,0,1,4.76,12.08Z"/><path class="cls-5" d="M5.15,12.31a.21.21,0,0,1-.19,0,.06.06,0,0,1,0-.11.21.21,0,0,1,.19,0A.06.06,0,0,1,5.15,12.31Z"/><path class="cls-5" d="M5.54,12.53a.21.21,0,0,1-.19,0,.06.06,0,0,1,0-.11.21.21,0,0,1,.19,0C5.59,12.45,5.59,12.5,5.54,12.53Z"/><path class="cls-5" d="M5.93,12.75a.21.21,0,0,1-.19,0,.06.06,0,0,1,0-.11.21.21,0,0,1,.19,0A.06.06,0,0,1,5.93,12.75Z"/><path class="cls-5" d="M6.32,13a.21.21,0,0,1-.19,0,.06.06,0,0,1,0-.11.21.21,0,0,1,.19,0A.06.06,0,0,1,6.32,13Z"/><path class="cls-5" d="M1.64,10.51a.21.21,0,0,1-.19,0,.06.06,0,0,1,0-.11.21.21,0,0,1,.19,0A.06.06,0,0,1,1.64,10.51Z"/><path class="cls-5" d="M2,10.73a.21.21,0,0,1-.19,0,.06.06,0,0,1,0-.11.21.21,0,0,1,.19,0A.06.06,0,0,1,2,10.73Z"/><path class="cls-5" d="M2.42,11a.21.21,0,0,1-.19,0,.06.06,0,0,1,0-.11.21.21,0,0,1,.19,0A.06.06,0,0,1,2.42,11Z"/><path class="cls-5" d="M2.81,11.18a.21.21,0,0,1-.19,0,.06.06,0,0,1,0-.11.21.21,0,0,1,.19,0A.06.06,0,0,1,2.81,11.18Z"/><path class="cls-5" d="M3.2,11.41a.21.21,0,0,1-.19,0,.06.06,0,0,1,0-.11.21.21,0,0,1,.19,0A.06.06,0,0,1,3.2,11.41Z"/><path class="cls-5" d="M3.59,11.63a.21.21,0,0,1-.19,0,.06.06,0,0,1,0-.11.21.21,0,0,1,.19,0A.06.06,0,0,1,3.59,11.63Z"/><path class="cls-5" d="M4,11.86a.21.21,0,0,1-.19,0,.06.06,0,0,1,0-.11.21.21,0,0,1,.19,0A.06.06,0,0,1,4,11.86Z"/><path class="cls-5" d="M4.37,12.08a.21.21,0,0,1-.19,0,.06.06,0,0,1,0-.11.21.21,0,0,1,.19,0A.06.06,0,0,1,4.37,12.08Z"/><path class="cls-5" d="M4.76,12.3a.21.21,0,0,1-.19,0,.06.06,0,0,1,0-.11.21.21,0,0,1,.19,0A.06.06,0,0,1,4.76,12.3Z"/><path class="cls-5" d="M5.15,12.53a.21.21,0,0,1-.19,0,.06.06,0,0,1,0-.11.21.21,0,0,1,.19,0A.06.06,0,0,1,5.15,12.53Z"/><path class="cls-5" d="M5.54,12.75a.21.21,0,0,1-.19,0,.06.06,0,0,1,0-.11.21.21,0,0,1,.19,0A.06.06,0,0,1,5.54,12.75Z"/><path class="cls-5" d="M5.93,13a.21.21,0,0,1-.19,0,.06.06,0,0,1,0-.11.21.21,0,0,1,.19,0A.06.06,0,0,1,5.93,13Z"/><path class="cls-5" d="M1.26,10.51a.21.21,0,0,1-.19,0,.06.06,0,0,1,0-.11.21.21,0,0,1,.19,0A.06.06,0,0,1,1.26,10.51Z"/><path class="cls-5" d="M1.65,10.73a.21.21,0,0,1-.19,0,.06.06,0,0,1,0-.11.21.21,0,0,1,.19,0A.06.06,0,0,1,1.65,10.73Z"/><path class="cls-5" d="M2,11a.21.21,0,0,1-.19,0c-.05,0-.05-.08,0-.11a.21.21,0,0,1,.19,0A.06.06,0,0,1,2,11Z"/><path class="cls-5" d="M2.42,11.18a.21.21,0,0,1-.19,0,.06.06,0,0,1,0-.11.21.21,0,0,1,.19,0A.06.06,0,0,1,2.42,11.18Z"/><path class="cls-5" d="M2.81,11.4a.21.21,0,0,1-.19,0,.06.06,0,0,1,0-.11.21.21,0,0,1,.19,0A.06.06,0,0,1,2.81,11.4Z"/><path class="cls-5" d="M3.2,11.63a.21.21,0,0,1-.19,0,.06.06,0,0,1,0-.11.21.21,0,0,1,.19,0A.06.06,0,0,1,3.2,11.63Z"/><path class="cls-5" d="M3.59,11.85a.21.21,0,0,1-.19,0,.06.06,0,0,1,0-.11.21.21,0,0,1,.19,0A.06.06,0,0,1,3.59,11.85Z"/><path class="cls-5" d="M4,12.08a.21.21,0,0,1-.19,0,.06.06,0,0,1,0-.11A.21.21,0,0,1,4,12,.06.06,0,0,1,4,12.08Z"/><path class="cls-5" d="M4.37,12.3a.21.21,0,0,1-.19,0,.06.06,0,0,1,0-.11.21.21,0,0,1,.19,0A.06.06,0,0,1,4.37,12.3Z"/><path class="cls-5" d="M4.76,12.53a.21.21,0,0,1-.19,0,.06.06,0,0,1,0-.11.21.21,0,0,1,.19,0C4.81,12.45,4.81,12.5,4.76,12.53Z"/><path class="cls-5" d="M5.15,12.75a.21.21,0,0,1-.19,0,.06.06,0,0,1,0-.11.21.21,0,0,1,.19,0A.06.06,0,0,1,5.15,12.75Z"/><path class="cls-5" d="M5.54,13a.21.21,0,0,1-.19,0,.06.06,0,0,1,0-.11.21.21,0,0,1,.19,0A.06.06,0,0,1,5.54,13Z"/><path class="cls-5" d="M5.93,13.2a.21.21,0,0,1-.19,0,.06.06,0,0,1,0-.11.21.21,0,0,1,.19,0A.06.06,0,0,1,5.93,13.2Z"/><path class="cls-5" d="M1.26,10.73a.21.21,0,0,1-.19,0,.06.06,0,0,1,0-.11.21.21,0,0,1,.19,0A.06.06,0,0,1,1.26,10.73Z"/><path class="cls-5" d="M1.65,11a.21.21,0,0,1-.19,0,.06.06,0,0,1,0-.11.21.21,0,0,1,.19,0A.06.06,0,0,1,1.65,11Z"/><path class="cls-5" d="M2,11.18a.21.21,0,0,1-.19,0,.06.06,0,0,1,0-.11.21.21,0,0,1,.19,0A.06.06,0,0,1,2,11.18Z"/><path class="cls-5" d="M2.43,11.4a.21.21,0,0,1-.19,0,.06.06,0,0,1,0-.11.21.21,0,0,1,.19,0A.06.06,0,0,1,2.43,11.4Z"/><path class="cls-5" d="M2.82,11.63a.21.21,0,0,1-.19,0,.06.06,0,0,1,0-.11.21.21,0,0,1,.19,0A.06.06,0,0,1,2.82,11.63Z"/><path class="cls-5" d="M3.2,11.85a.21.21,0,0,1-.19,0,.06.06,0,0,1,0-.11.21.21,0,0,1,.19,0A.06.06,0,0,1,3.2,11.85Z"/><path class="cls-5" d="M3.59,12.08a.21.21,0,0,1-.19,0,.06.06,0,0,1,0-.11.21.21,0,0,1,.19,0A.06.06,0,0,1,3.59,12.08Z"/><path class="cls-5" d="M4,12.3a.21.21,0,0,1-.19,0,.06.06,0,0,1,0-.11.21.21,0,0,1,.19,0A.06.06,0,0,1,4,12.3Z"/><path class="cls-5" d="M4.37,12.53a.21.21,0,0,1-.19,0,.06.06,0,0,1,0-.11.21.21,0,0,1,.19,0A.06.06,0,0,1,4.37,12.53Z"/><path class="cls-5" d="M4.76,12.75a.21.21,0,0,1-.19,0,.06.06,0,0,1,0-.11.21.21,0,0,1,.19,0A.06.06,0,0,1,4.76,12.75Z"/><path class="cls-5" d="M5.15,13A.21.21,0,0,1,5,13a.06.06,0,0,1,0-.11.21.21,0,0,1,.19,0A.06.06,0,0,1,5.15,13Z"/><path class="cls-5" d="M5.54,13.2a.21.21,0,0,1-.19,0,.06.06,0,0,1,0-.11.21.21,0,0,1,.19,0A.06.06,0,0,1,5.54,13.2Z"/><path class="cls-5" d="M.87,10.73a.21.21,0,0,1-.19,0,.06.06,0,0,1,0-.11.21.21,0,0,1,.19,0A.06.06,0,0,1,.87,10.73Z"/><path class="cls-5" d="M1.26,11a.21.21,0,0,1-.19,0,.06.06,0,0,1,0-.11.21.21,0,0,1,.19,0A.06.06,0,0,1,1.26,11Z"/><path class="cls-5" d="M1.65,11.18a.21.21,0,0,1-.19,0,.06.06,0,0,1,0-.11.21.21,0,0,1,.19,0A.06.06,0,0,1,1.65,11.18Z"/><path class="cls-5" d="M2,11.4a.21.21,0,0,1-.19,0,.06.06,0,0,1,0-.11.21.21,0,0,1,.19,0A.06.06,0,0,1,2,11.4Z"/><path class="cls-5" d="M2.43,11.63a.21.21,0,0,1-.19,0,.06.06,0,0,1,0-.11.21.21,0,0,1,.19,0C2.48,11.55,2.48,11.6,2.43,11.63Z"/><path class="cls-5" d="M2.82,11.85a.21.21,0,0,1-.19,0,.06.06,0,0,1,0-.11.21.21,0,0,1,.19,0A.06.06,0,0,1,2.82,11.85Z"/><path class="cls-5" d="M3.21,12.08a.21.21,0,0,1-.19,0A.06.06,0,0,1,3,12a.21.21,0,0,1,.19,0A.06.06,0,0,1,3.21,12.08Z"/><path class="cls-5" d="M3.6,12.3a.21.21,0,0,1-.19,0,.06.06,0,0,1,0-.11.21.21,0,0,1,.19,0A.06.06,0,0,1,3.6,12.3Z"/><path class="cls-5" d="M4,12.53a.21.21,0,0,1-.19,0,.06.06,0,0,1,0-.11.21.21,0,0,1,.19,0C4,12.45,4,12.5,4,12.53Z"/><path class="cls-5" d="M4.37,12.75a.21.21,0,0,1-.19,0,.06.06,0,0,1,0-.11.21.21,0,0,1,.19,0A.06.06,0,0,1,4.37,12.75Z"/><path class="cls-5" d="M4.76,13a.21.21,0,0,1-.19,0,.06.06,0,0,1,0-.11.21.21,0,0,1,.19,0A.06.06,0,0,1,4.76,13Z"/><path class="cls-5" d="M5.15,13.2a.21.21,0,0,1-.19,0,.06.06,0,0,1,0-.11.21.21,0,0,1,.19,0A.06.06,0,0,1,5.15,13.2Z"/><path class="cls-5" d="M5.54,13.43a.21.21,0,0,1-.19,0,.06.06,0,0,1,0-.11.21.21,0,0,1,.19,0A.06.06,0,0,1,5.54,13.43Z"/><path class="cls-5" d="M.87,11a.21.21,0,0,1-.19,0,.06.06,0,0,1,0-.11.21.21,0,0,1,.19,0A.06.06,0,0,1,.87,11Z"/><path class="cls-5" d="M1.26,11.18a.21.21,0,0,1-.19,0,.06.06,0,0,1,0-.11.21.21,0,0,1,.19,0A.06.06,0,0,1,1.26,11.18Z"/><path class="cls-5" d="M1.65,11.4a.21.21,0,0,1-.19,0,.06.06,0,0,1,0-.11.21.21,0,0,1,.19,0A.06.06,0,0,1,1.65,11.4Z"/><path class="cls-5" d="M2,11.63a.21.21,0,0,1-.19,0,.06.06,0,0,1,0-.11.21.21,0,0,1,.19,0C2.09,11.55,2.09,11.6,2,11.63Z"/><path class="cls-5" d="M2.43,11.85a.21.21,0,0,1-.19,0,.06.06,0,0,1,0-.11.21.21,0,0,1,.19,0A.06.06,0,0,1,2.43,11.85Z"/><path class="cls-5" d="M2.82,12.08a.21.21,0,0,1-.19,0,.06.06,0,0,1,0-.11.21.21,0,0,1,.19,0A.06.06,0,0,1,2.82,12.08Z"/><path class="cls-5" d="M3.21,12.3a.21.21,0,0,1-.19,0,.06.06,0,0,1,0-.11.21.21,0,0,1,.19,0A.06.06,0,0,1,3.21,12.3Z"/><path class="cls-5" d="M3.6,12.53a.21.21,0,0,1-.19,0,.06.06,0,0,1,0-.11.21.21,0,0,1,.19,0C3.65,12.45,3.65,12.5,3.6,12.53Z"/><path class="cls-5" d="M4,12.75a.21.21,0,0,1-.19,0,.06.06,0,0,1,0-.11.21.21,0,0,1,.19,0A.06.06,0,0,1,4,12.75Z"/><path class="cls-5" d="M4.38,13a.21.21,0,0,1-.19,0,.06.06,0,0,1,0-.11.21.21,0,0,1,.19,0A.06.06,0,0,1,4.38,13Z"/><path class="cls-5" d="M4.76,13.2a.21.21,0,0,1-.19,0,.06.06,0,0,1,0-.11.21.21,0,0,1,.19,0A.06.06,0,0,1,4.76,13.2Z"/><path class="cls-5" d="M5.15,13.43a.21.21,0,0,1-.19,0,.06.06,0,0,1,0-.11.21.21,0,0,1,.19,0A.06.06,0,0,1,5.15,13.43Z"/><polygon class="cls-3" points="5.33 14.21 0 11.13 0 10.74 5.33 13.82 5.33 14.21"/><path class="cls-3" d="M3.17,8.05h0V7.19l-.08,0L3,7.18a.73.73,0,0,0-.66,0l-.07,0-.07,0V8h0a.23.23,0,0,0,.14.2.73.73,0,0,0,.66,0,.24.24,0,0,0,.14-.18Z"/><path class="cls-6" d="M3,7.39a.73.73,0,0,1-.66,0,.2.2,0,0,1,0-.38A.73.73,0,0,1,3,7,.2.2,0,0,1,3,7.39Z"/><path class="cls-4" d="M3.61,7s0,0,0,0V6.19h0A.56.56,0,0,0,3.34,6,1.42,1.42,0,0,0,2.06,6a.55.55,0,0,0-.23.23l0,0V7s0,0,0,0h0a.46.46,0,0,0,.27.36,1.42,1.42,0,0,0,1.28,0A.46.46,0,0,0,3.61,7h0Z"/><path class="cls-6" d="M3.34,6.57a1.42,1.42,0,0,1-1.28,0,.39.39,0,0,1,0-.74,1.42,1.42,0,0,1,1.28,0A.39.39,0,0,1,3.34,6.57Z"/><path class="cls-3" d="M5.5,9.39h0V8.53l-.08,0-.05,0a.73.73,0,0,0-.66,0l-.07,0-.07,0v.85h0a.23.23,0,0,0,.14.2.73.73,0,0,0,.66,0,.24.24,0,0,0,.14-.18Z"/><path class="cls-6" d="M5.36,8.73a.73.73,0,0,1-.66,0,.2.2,0,0,1,0-.38.73.73,0,0,1,.66,0A.2.2,0,0,1,5.36,8.73Z"/><path class="cls-4" d="M5.93,8.33s0,0,0,0V7.52h0a.56.56,0,0,0-.23-.23,1.42,1.42,0,0,0-1.28,0,.55.55,0,0,0-.23.23l0,0V8.3s0,0,0,0h0a.46.46,0,0,0,.27.36,1.42,1.42,0,0,0,1.28,0,.46.46,0,0,0,.26-.35h0Z"/><path class="cls-6" d="M5.67,7.9a1.42,1.42,0,0,1-1.28,0,.39.39,0,0,1,0-.74,1.42,1.42,0,0,1,1.28,0A.39.39,0,0,1,5.67,7.9Z"/><polygon class="cls-2" points="5.34 8.47 0.01 5.39 0.01 2.6 5.34 5.67 5.34 8.47"/><polygon class="cls-6" points="0.07 5.36 0.07 2.71 5.27 5.71 5.27 8.36 0.07 5.36"/><polygon class="cls-7" points="4.6 0 2.3 1.29 0.01 2.6 5.34 5.67 7.63 4.37 9.89 3.05 4.6 0"/><polygon class="cls-8" points="7.63 4.37 5.34 5.67 5.34 8.47 7.63 7.18 7.63 12.91 9.89 11.59 9.89 3.05 7.63 4.37"/><polygon class="cls-5" points="5.33 14.21 9.89 11.63 9.89 11.24 5.33 13.82 5.33 14.21"/><path class="cls-1" d="M5,3.69a2.5,2.5,0,0,1-.92-.17l-.23-.11L3.7,3.28a.72.72,0,0,1-.3-.61A.86.86,0,0,1,3.88,2,2.31,2.31,0,0,1,5,1.76a2.5,2.5,0,0,1,.92.17L6.17,2l.19.13a.72.72,0,0,1,.3.61.86.86,0,0,1-.48.63A2.31,2.31,0,0,1,5,3.69Z"/><path class="cls-9" d="M6.33,2.21l-.19-.13L5.92,2a2.5,2.5,0,0,0-2,.1c-.54.31-.61.8-.18,1.16l.19.13.22.11a2.5,2.5,0,0,0,2-.1C6.68,3.06,6.76,2.57,6.33,2.21Z"/><path class="cls-8" d="M6.06,3.32a2.31,2.31,0,0,1-1.85.1L4,3.32,3.83,3.2c-.39-.33-.34-.78.16-1.07A2.31,2.31,0,0,1,5.85,2l.21.1.17.12C6.62,2.58,6.56,3,6.06,3.32Z"/><path class="cls-7" d="M6.33,2.21l-.19-.13L5.92,2a2.5,2.5,0,0,0-2,.1c-.54.31-.61.8-.18,1.16l.19.13.22.11a2.5,2.5,0,0,0,2-.1C6.68,3.06,6.76,2.57,6.33,2.21ZM4,2.13A2.31,2.31,0,0,1,5.85,2l-2,1.17C3.44,2.87,3.49,2.42,4,2.13Zm.21,1.29,2-1.17c.39.33.34.78-.17,1.07A2.31,2.31,0,0,1,4.21,3.42Z"/><path class="cls-6" d="M6.23,2.26a3.18,3.18,0,0,1-1,1,1.24,1.24,0,0,1-1,.18l2-1.16Z"/><path class="cls-2" d="M.66,4.26H.47l.22-.13H.93l.05,0,.08.05,0,0,0,0,0,0h0l0,0,0,0h0l0,0,0,0h0l0,0,0,0v0h0l0,0v.06h0v.07h0a.62.62,0,0,1,0,.08.28.28,0,0,1-.12.26l-.22.13A.28.28,0,0,0,1.17,5a.61.61,0,0,0,0-.09h0l0-.09h0l0-.1h0l0-.09H1L1,4.51H1L.93,4.43h0l-.05,0,0,0L.76,4.3l-.05,0h0Z"/><path class="cls-1" d="M.76,4.3c-.23-.13-.41,0-.41.23a.89.89,0,0,0,.41.7c.23.13.41,0,.41-.23A.89.89,0,0,0,.76,4.3Z"/><path class="cls-2" d="M3.89,6.1H3.69L3.91,6h.24L4.2,6l.08.05,0,0,0,0,0,0h0l0,0,0,0h0l0,0,0,0h0l0,0,0,0v0h0l0,0v.06h0V6.6h0a.62.62,0,0,1,0,.08A.28.28,0,0,1,4.49,7l-.22.13a.28.28,0,0,0,.12-.26.64.64,0,0,0,0-.09h0l0-.09h0l0-.1h0l0-.09h0l-.06-.09h0l-.06-.07h0l-.05,0,0,0L4,6.14l-.05,0h0Z"/><path class="cls-1" d="M4,6.14c-.23-.13-.41,0-.41.23a.89.89,0,0,0,.41.7c.23.13.41,0,.41-.23A.89.89,0,0,0,4,6.14Z"/><path class="cls-10" d="M1.74,4.76v.87l1.36.79V5.55Z"/><path class="cls-11" d="M2,5.14c-.11-.06-.2,0-.2.12a.45.45,0,0,0,.2.35c.11.06.2,0,.2-.12A.45.45,0,0,0,2,5.14Z"/><path class="cls-12" d="M2.68,5.53c-.11-.06-.2,0-.2.12a.45.45,0,0,0,.2.35c.11.06.2,0,.2-.12A.45.45,0,0,0,2.68,5.53Z"/></g></g></svg>