<svg xmlns="http://www.w3.org/2000/svg" viewBox="0 0 26.95 8.29"><defs><style>.cls-1{fill:#babcbe;}.cls-2{fill:#a5a7aa;}.cls-3{fill:#919395;}.cls-4{fill:#141414;}.cls-5{fill:#f41c1c;}.cls-6{fill:#f9f9f9;}.cls-7{fill:none;stroke:#fff;stroke-miterlimit:10;stroke-width:0.07px;}.cls-8{fill:#fcfcfc;}.cls-9{fill:#515151;}.cls-10{fill:#2d2d2d;}.cls-11{fill:#ccc6b8;}.cls-12{fill:#dbd5c9;}.cls-13{fill:#eae4d6;}</style></defs><title>Ресурс 13</title><g id="Слой_2" data-name="Слой 2"><g id="Layer_1" data-name="Layer 1"><g id="Провод"><g id="удленитель"><polygon class="cls-1" points="7.93 4.36 2.81 1.41 4.51 0.43 9.63 3.38 7.93 4.36"/><path class="cls-2" d="M5.2,1.82A1.29,1.29,0,0,1,4,1.82a.36.36,0,0,1,0-.67,1.29,1.29,0,0,1,1.17,0A.36.36,0,0,1,5.2,1.82Z"/><path class="cls-2" d="M6.51,2.58a1.29,1.29,0,0,1-1.17,0,.36.36,0,0,1,0-.67,1.29,1.29,0,0,1,1.17,0A.36.36,0,0,1,6.51,2.58Z"/><path class="cls-2" d="M7.83,3.33a1.29,1.29,0,0,1-1.17,0,.36.36,0,0,1,0-.67,1.29,1.29,0,0,1,1.17,0A.36.36,0,0,1,7.83,3.33Z"/><path class="cls-3" d="M5.21,1.82l-.11,0c.24-.18.2-.45-.08-.61A1.29,1.29,0,0,0,4,1.2.23.23,0,0,1,4,1.14a1.3,1.3,0,0,1,1.17,0A.36.36,0,0,1,5.21,1.82Z"/><path class="cls-3" d="M6.51,2.58l-.11,0c.24-.18.2-.45-.08-.61A1.29,1.29,0,0,0,5.26,2a.23.23,0,0,1,.08-.06,1.3,1.3,0,0,1,1.17,0A.36.36,0,0,1,6.51,2.58Z"/><path class="cls-3" d="M7.83,3.34l-.11,0c.24-.18.2-.45-.08-.61a1.29,1.29,0,0,0-1.06,0,.23.23,0,0,1,.08-.06,1.3,1.3,0,0,1,1.17,0A.36.36,0,0,1,7.83,3.34Z"/><path class="cls-4" d="M4.49,1.4a.23.23,0,0,1-.21,0,.06.06,0,0,1,0-.12.23.23,0,0,1,.21,0A.06.06,0,0,1,4.49,1.4Z"/><path class="cls-4" d="M4.93,1.66a.23.23,0,0,1-.21,0,.06.06,0,0,1,0-.12.23.23,0,0,1,.21,0A.06.06,0,0,1,4.93,1.66Z"/><path class="cls-4" d="M5.81,2.17a.23.23,0,0,1-.21,0A.06.06,0,0,1,5.6,2a.23.23,0,0,1,.21,0A.06.06,0,0,1,5.81,2.17Z"/><path class="cls-4" d="M6.25,2.43a.23.23,0,0,1-.21,0,.06.06,0,0,1,0-.12.23.23,0,0,1,.21,0A.06.06,0,0,1,6.25,2.43Z"/><path class="cls-4" d="M7.14,2.94a.23.23,0,0,1-.21,0,.06.06,0,0,1,0-.12.23.23,0,0,1,.21,0A.06.06,0,0,1,7.14,2.94Z"/><path class="cls-4" d="M7.58,3.19a.23.23,0,0,1-.21,0,.06.06,0,0,1,0-.12.23.23,0,0,1,.21,0A.06.06,0,0,1,7.58,3.19Z"/><polygon class="cls-5" points="7.94 4.07 7.51 3.82 8.67 3.2 9.1 3.45 7.94 4.07"/><polygon class="cls-6" points="8.5 3.55 8.41 3.5 8.7 3.33 8.78 3.38 8.5 3.55"/><path class="cls-7" d="M8.1,3.91a.34.34,0,0,1-.31,0,.09.09,0,0,1,0-.18.34.34,0,0,1,.31,0A.09.09,0,0,1,8.1,3.91Z"/><polygon class="cls-8" points="8.49 3.72 8.12 3.5 8.12 3.5 8.5 3.71 8.49 3.72"/><polygon class="cls-3" points="7.93 4.99 2.81 2.04 2.81 1.41 7.93 4.36 7.93 4.99"/><polygon class="cls-2" points="9.63 4.01 7.93 4.99 7.93 4.36 9.63 3.38 9.63 4.01"/><path class="cls-9" d="M8.78,4c.1-.06.19,0,.19.11a.42.42,0,0,1-.19.33c-.1.06-.19,0-.19-.11A.42.42,0,0,1,8.78,4Z"/><path class="cls-10" d="M8.78,4.06c.06,0,.11,0,.11.06a.24.24,0,0,1-.11.19c-.06,0-.11,0-.11-.06A.24.24,0,0,1,8.78,4.06Z"/><polygon class="cls-3" points="7.94 4.12 7.51 3.87 7.51 3.82 7.94 4.07 7.94 4.12"/><polygon class="cls-2" points="9.1 3.45 9.1 3.45 7.94 4.12 7.94 4.07 9.1 3.45"/></g><g id="Розетка"><polygon class="cls-1" points="26.68 8.29 20.89 4.95 20.89 2.45 26.68 5.79 26.68 8.29"/><path class="cls-2" d="M22.86,4.85c0,.47-.33.67-.74.43A1.64,1.64,0,0,1,21.37,4c0-.47.33-.67.74-.43A1.64,1.64,0,0,1,22.86,4.85Z"/><path class="cls-4" d="M21.95,4.32c0,.08-.06.12-.13.08a.29.29,0,0,1-.13-.23c0-.08.06-.12.13-.08A.29.29,0,0,1,21.95,4.32Z"/><path class="cls-4" d="M22.51,4.65c0,.08-.06.12-.13.08a.29.29,0,0,1-.13-.23c0-.08.06-.12.13-.08A.29.29,0,0,1,22.51,4.65Z"/><path class="cls-3" d="M22.13,3.57a.44.44,0,0,1,.12.09c-.36-.15-.62.06-.62.48a1.65,1.65,0,0,0,.62,1.2.29.29,0,0,1-.12-.05A1.66,1.66,0,0,1,21.38,4C21.38,3.53,21.72,3.34,22.13,3.57Z"/><path class="cls-2" d="M24.53,5.82c0,.47-.33.67-.74.43A1.64,1.64,0,0,1,23,5c0-.47.33-.67.74-.43A1.64,1.64,0,0,1,24.53,5.82Z"/><path class="cls-4" d="M23.64,5.3c0,.08-.06.12-.13.08a.29.29,0,0,1-.13-.23c0-.08.06-.12.13-.08A.29.29,0,0,1,23.64,5.3Z"/><path class="cls-4" d="M24.2,5.62c0,.08-.06.12-.13.08a.29.29,0,0,1-.13-.23c0-.08.06-.12.13-.08A.29.29,0,0,1,24.2,5.62Z"/><path class="cls-3" d="M23.79,4.53a.44.44,0,0,1,.12.09c-.36-.15-.62.06-.62.48a1.65,1.65,0,0,0,.62,1.2.29.29,0,0,1-.12-.05A1.66,1.66,0,0,1,23,5C23,4.49,23.38,4.29,23.79,4.53Z"/><path class="cls-2" d="M26.21,6.78c0,.47-.33.67-.74.43a1.64,1.64,0,0,1-.74-1.29c0-.47.33-.67.74-.43A1.64,1.64,0,0,1,26.21,6.78Z"/><path class="cls-4" d="M25.33,6.27c0,.08-.06.12-.13.08a.29.29,0,0,1-.13-.23c0-.08.06-.12.13-.08A.29.29,0,0,1,25.33,6.27Z"/><path class="cls-4" d="M25.89,6.6c0,.08-.06.12-.13.08a.29.29,0,0,1-.13-.23c0-.08.06-.12.13-.08A.29.29,0,0,1,25.89,6.6Z"/><path class="cls-3" d="M25.46,5.5a.44.44,0,0,1,.12.09c-.36-.15-.62.06-.62.48a1.65,1.65,0,0,0,.62,1.2.29.29,0,0,1-.12-.05,1.66,1.66,0,0,1-.74-1.29C24.72,5.46,25.06,5.26,25.46,5.5Z"/><polygon class="cls-3" points="26.95 8.13 26.68 8.28 26.68 5.78 26.95 5.63 26.95 8.13"/><polygon class="cls-2" points="26.68 5.79 20.89 2.44 21.16 2.28 26.95 5.63 26.68 5.79"/></g><g id="вилка"><polygon class="cls-11" points="23.14 6.58 22.44 6.17 22.44 5.57 23.14 5.97 23.14 6.58"/><polygon class="cls-11" points="24.11 6.56 22.9 5.86 22.9 4.82 24.11 5.52 24.11 6.56"/><polygon class="cls-12" points="24.42 6.38 24.11 6.56 24.11 5.52 24.42 5.34 24.42 6.38"/><polygon class="cls-13" points="23.14 5.97 22.44 5.57 23.16 5.15 23.87 5.56 23.14 5.97"/><polygon class="cls-12" points="23.87 6.17 23.14 6.58 23.14 5.97 23.87 5.56 23.87 6.17"/><polygon class="cls-13" points="24.11 5.52 22.9 4.82 23.21 4.64 24.42 5.34 24.11 5.52"/></g><g id="вилка-2" data-name="вилка"><polygon class="cls-11" points="5.43 1.22 6.14 0.81 6.66 1.11 5.96 1.52 5.43 1.22"/><polygon class="cls-11" points="4.97 2.06 6.18 1.37 7.08 1.89 5.87 2.58 4.97 2.06"/><polygon class="cls-12" points="4.97 2.42 4.97 2.06 5.87 2.58 5.87 2.94 4.97 2.42"/><polygon class="cls-13" points="5.96 1.52 6.66 1.11 6.66 1.95 5.96 2.35 5.96 1.52"/><polygon class="cls-12" points="5.43 2.05 5.43 1.22 5.96 1.52 5.96 2.35 5.43 2.05"/><polygon class="cls-13" points="5.87 2.58 7.08 1.89 7.08 2.24 5.87 2.94 5.87 2.58"/></g><g id="вилка-3" data-name="вилка"><polygon class="cls-11" points="6.35 2.88 7.56 2.18 8.46 2.7 7.25 3.4 6.35 2.88"/><polygon class="cls-12" points="6.35 3.24 6.35 2.88 7.25 3.4 7.25 3.76 6.35 3.24"/><polygon class="cls-13" points="7.34 2.34 8.04 1.93 8.04 2.76 7.34 3.17 7.34 2.34"/><polygon class="cls-12" points="6.81 2.87 6.81 2.04 7.34 2.34 7.34 3.17 6.81 2.87"/><polygon class="cls-13" points="7.25 3.4 8.46 2.7 8.46 3.06 7.25 3.76 7.25 3.4"/><polygon class="cls-11" points="6.81 2.04 7.52 1.63 8.04 1.93 7.34 2.34 6.81 2.04"/></g><polygon class="cls-10" points="14.18 5.07 7.31 1.11 7.6 0.96 14.31 4.83 14.18 5.07"/><polygon class="cls-10" points="21.53 6.96 14.23 2.75 14.53 2.59 21.67 6.72 21.53 6.96"/><polygon class="cls-10" points="7.59 0.95 7.59 1.99 7.31 1.99 7.31 1.08 7.59 0.95"/><polygon class="cls-10" points="6.2 0.18 6.2 1.22 5.92 1.22 5.92 0.31 6.2 0.18"/><rect class="cls-10" x="8.64" y="4.53" width="1.97" height="0.28" transform="translate(3.62 -4.18) rotate(30)"/><rect class="cls-10" x="10" y="3.79" width="4.92" height="0.28" transform="translate(-0.3 6.76) rotate(-30)"/><polygon class="cls-10" points="22.86 6.19 21.53 6.96 21.39 6.72 22.73 5.97 22.86 6.19"/><rect class="cls-10" x="-0.39" y="1.72" width="6.88" height="0.28" transform="translate(-0.52 1.77) rotate(-30)"/><path class="cls-10" d="M22.87,6.15c0,.06,0,.09-.1.06a.22.22,0,0,1-.1-.17c0-.06,0-.09.1-.06A.22.22,0,0,1,22.87,6.15Z"/><path class="cls-10" d="M11,3.16c0,.06,0,.09-.1.06a.22.22,0,0,1-.1-.17c0-.06,0-.09.1-.06A.22.22,0,0,1,11,3.16Z"/><ellipse class="cls-10" cx="7.45" cy="1.99" rx="0.14" ry="0.04"/><ellipse class="cls-10" cx="6.06" cy="1.22" rx="0.14" ry="0.04"/><circle class="cls-10" cx="7.49" cy="1.1" r="0.18"/><circle class="cls-10" cx="6.02" cy="0.18" r="0.18"/></g></g></g></svg>