<svg xmlns="http://www.w3.org/2000/svg" viewBox="0 0 26.91 14.57"><defs><style>.cls-1{fill:#babcbe;}.cls-2{fill:#a5a7aa;}.cls-3{fill:#919395;}.cls-4{fill:#141414;}.cls-5{fill:#f41c1c;}.cls-6{fill:#f9f9f9;}.cls-7{fill:none;stroke:#fff;stroke-miterlimit:10;stroke-width:0.07px;}.cls-8{fill:#fcfcfc;}.cls-9{fill:#515151;}.cls-10{fill:#2d2d2d;}.cls-11{fill:#ccc6b8;}.cls-12{fill:#dbd5c9;}.cls-13{fill:#eae4d6;}.cls-14{fill:#f4e022;}</style></defs><title>extension_cable</title><g id="Слой_2" data-name="Слой 2"><g id="Layer_1" data-name="Layer 1"><g id="g7376"><g id="g7126"><g id="Провод"><g id="удленитель"><g id="g6643"><polygon id="polygon6606" class="cls-1" points="7.91 10.67 2.81 7.77 4.51 6.77 9.61 9.67 7.91 10.67"/><path id="path6608" class="cls-2" d="M5.21,8.17a1.27,1.27,0,0,1-1.2,0,.38.38,0,0,1,0-.7,1.27,1.27,0,0,1,1.2,0A.38.38,0,0,1,5.21,8.17Z"/><path id="path6610" class="cls-2" d="M6.51,8.87a1.27,1.27,0,0,1-1.2,0,.38.38,0,0,1,0-.7,1.27,1.27,0,0,1,1.2,0A.38.38,0,0,1,6.51,8.87Z"/><path id="path6612" class="cls-2" d="M7.81,9.67a1.27,1.27,0,0,1-1.2,0,.38.38,0,0,1,0-.7,1.27,1.27,0,0,1,1.2,0A.38.38,0,0,1,7.81,9.67Z"/><g id="g6617"><g id="_Группа_" data-name="&lt;Группа&gt;"><path id="path6614" class="cls-3" d="M5.21,8.17h-.1c.2-.2.2-.4-.1-.6a1.08,1.08,0,0,0-1.1,0l.1-.1a1.27,1.27,0,0,1,1.2,0C5.61,7.67,5.51,8,5.21,8.17Z"/></g></g><g id="g6622"><g id="_Группа_2" data-name="&lt;Группа&gt;"><path id="path6619" class="cls-3" d="M6.51,8.87h-.1c.2-.2.2-.4-.1-.6a1.08,1.08,0,0,0-1.1,0l.1-.1a1.27,1.27,0,0,1,1.2,0C6.81,8.37,6.81,8.77,6.51,8.87Z"/></g></g><g id="g6627"><g id="_Группа_3" data-name="&lt;Группа&gt;"><path id="path6624" class="cls-3" d="M7.81,9.67h-.1c.2-.2.2-.4-.1-.6a1.08,1.08,0,0,0-1.1,0l.1-.1a1.27,1.27,0,0,1,1.2,0C8.21,9.17,8.11,9.47,7.81,9.67Z"/></g></g><path id="path6629" class="cls-4" d="M4.51,7.77h-.2s-.1-.1,0-.1h.2Z"/><path id="path6631" class="cls-4" d="M4.91,8h-.2s-.1-.1,0-.1h.2S5,8,4.91,8Z"/><g id="g6637"><path id="path6633" class="cls-4" d="M5.81,8.47h-.2s-.1-.1,0-.1h.2C5.91,8.37,5.91,8.47,5.81,8.47Z"/><path id="path6635" class="cls-4" d="M6.21,8.77H6s-.1-.1,0-.1h.2S6.31,8.77,6.21,8.77Z"/></g><path id="path6639" class="cls-4" d="M7.11,9.27h-.2s-.1-.1,0-.1h.2S7.21,9.27,7.11,9.27Z"/><path id="path6641" class="cls-4" d="M7.61,9.57h-.2s-.1-.1,0-.1h.2Z"/></g><g id="g6653"><polygon id="polygon6645" class="cls-5" points="7.91 10.37 7.51 10.17 8.71 9.57 9.11 9.77 7.91 10.37"/><polygon id="polygon6647" class="cls-6" points="8.51 9.87 8.41 9.87 8.71 9.67 8.81 9.67 8.51 9.87"/><path id="path6649" class="cls-7" d="M8.11,10.27h-.3c-.1,0-.1-.1,0-.2s.2,0,.3,0S8.21,10.17,8.11,10.27Z"/><polygon id="polygon6651" class="cls-8" points="8.51 10.07 8.11 9.87 8.11 9.87 8.51 10.07"/></g><polygon id="polygon6655" class="cls-3" points="7.91 11.37 2.81 8.37 2.81 7.77 7.91 10.67 7.91 11.37"/><polygon id="polygon6657" class="cls-2" points="9.61 10.37 7.91 11.27 7.91 10.67 9.61 9.67 9.61 10.37"/><path id="path6659" class="cls-9" d="M8.81,10.27c.1-.1.2,0,.2.1s-.1.3-.2.3-.2,0-.2-.1S8.71,10.37,8.81,10.27Z"/><path id="path6661" class="cls-10" d="M8.81,10.37c.1,0,.1,0,.1.1s0,.2-.1.2-.1,0-.1-.1S8.71,10.47,8.81,10.37Z"/><polygon id="polygon6663" class="cls-3" points="7.91 10.47 7.51 10.17 7.51 10.17 7.91 10.37 7.91 10.47"/><polygon id="polygon6665" class="cls-2" points="9.11 9.77 9.11 9.77 7.91 10.47 7.91 10.37 9.11 9.77"/></g><g id="Розетка"><polygon id="polygon6668" class="cls-1" points="26.71 14.57 20.91 11.27 20.91 8.77 26.71 12.07 26.71 14.57"/><g id="g6681"><path id="path6670" class="cls-2" d="M22.91,11.17c0,.5-.3.7-.7.4a1.56,1.56,0,0,1-.7-1.3c0-.5.3-.7.7-.4A2.09,2.09,0,0,1,22.91,11.17Z"/><path id="path6672" class="cls-4" d="M21.91,10.67a.1.1,0,0,1-.1.1.35.35,0,0,1-.1-.2.1.1,0,0,1,.1-.1C21.91,10.47,21.91,10.57,21.91,10.67Z"/><path id="path6674" class="cls-4" d="M22.51,11a.1.1,0,0,1-.1.1c-.1,0-.1-.1-.1-.2a.1.1,0,0,1,.1-.1A.35.35,0,0,1,22.51,11Z"/><g id="g6679"><g id="_Группа_4" data-name="&lt;Группа&gt;"><path id="path6676" class="cls-3" d="M22.11,9.87l.1.1c-.4-.1-.6.1-.6.5a2,2,0,0,0,.6,1.2.1.1,0,0,1-.1-.1,1.56,1.56,0,0,1-.7-1.3C21.41,9.77,21.71,9.67,22.11,9.87Z"/></g></g></g><g id="g6696"><path id="path6683" class="cls-2" d="M24.51,12.17c0,.5-.3.7-.7.4a1.71,1.71,0,0,1-.7-1.3c0-.5.3-.7.7-.4A1.56,1.56,0,0,1,24.51,12.17Z"/><g id="g6689"><path id="path6685" class="cls-4" d="M23.61,11.67a.1.1,0,0,1-.1.1.35.35,0,0,1-.1-.2.1.1,0,0,1,.1-.1C23.61,11.47,23.61,11.57,23.61,11.67Z"/><path id="path6687" class="cls-4" d="M24.21,12a.1.1,0,0,1-.1.1c-.1,0-.1-.1-.1-.2a.1.1,0,0,1,.1-.1A.35.35,0,0,1,24.21,12Z"/></g><g id="g6694"><g id="_Группа_5" data-name="&lt;Группа&gt;"><path id="path6691" class="cls-3" d="M23.81,10.87l.1.1c-.4-.1-.6.1-.6.5a2,2,0,0,0,.6,1.2h-.1a1.56,1.56,0,0,1-.7-1.3C23.11,10.87,23.41,10.67,23.81,10.87Z"/></g></g></g><g id="g6709"><path id="path6698" class="cls-2" d="M26.21,13.07c0,.5-.3.7-.7.4a1.56,1.56,0,0,1-.7-1.3c0-.5.3-.7.7-.4A1.89,1.89,0,0,1,26.21,13.07Z"/><path id="path6700" class="cls-4" d="M25.31,12.57a.1.1,0,0,1-.1.1.35.35,0,0,1-.1-.2.1.1,0,0,1,.1-.1C25.31,12.37,25.31,12.47,25.31,12.57Z"/><path id="path6702" class="cls-4" d="M25.91,13a.1.1,0,0,1-.1.1.35.35,0,0,1-.1-.2.1.1,0,0,1,.1-.1A.35.35,0,0,1,25.91,13Z"/><g id="g6707"><g id="_Группа_6" data-name="&lt;Группа&gt;"><path id="path6704" class="cls-3" d="M25.51,11.87l.1.1c-.4-.1-.6.1-.6.5a2,2,0,0,0,.6,1.2.1.1,0,0,1-.1-.1,1.56,1.56,0,0,1-.7-1.3C24.81,11.77,25,11.57,25.51,11.87Z"/></g></g></g><polygon id="polygon6711" class="cls-3" points="26.91 14.47 26.71 14.57 26.71 12.07 26.91 11.97 26.91 14.47"/><polygon id="polygon6713" class="cls-2" points="26.71 12.07 20.91 8.77 21.21 8.57 26.91 11.97 26.71 12.07"/></g><g id="вилка"><polygon id="polygon6732" class="cls-11" points="23.11 12.87 22.41 12.47 22.41 11.87 23.11 12.27 23.11 12.87"/><polygon id="polygon6734" class="cls-11" points="24.11 12.87 22.91 12.17 22.91 11.17 24.11 11.87 24.11 12.87"/><polygon id="polygon6736" class="cls-12" points="24.41 12.67 24.11 12.87 24.11 11.87 24.41 11.67 24.41 12.67"/><polygon id="polygon6738" class="cls-13" points="23.11 12.27 22.41 11.87 23.11 11.47 23.91 11.87 23.11 12.27"/><polygon id="polygon6740" class="cls-12" points="23.91 12.47 23.11 12.87 23.11 12.27 23.91 11.87 23.91 12.47"/><polygon id="polygon6742" class="cls-13" points="24.11 11.87 22.91 11.17 23.21 10.97 24.41 11.67 24.11 11.87"/></g><g id="вилка-2" data-name="вилка"><polygon id="polygon6761" class="cls-11" points="5.41 7.57 6.11 7.17 6.71 7.47 5.91 7.87 5.41 7.57"/><polygon id="polygon6763" class="cls-11" points="5.01 8.37 6.21 7.67 7.11 8.17 5.91 8.87 5.01 8.37"/><polygon id="polygon6765" class="cls-12" points="5.01 8.77 5.01 8.37 5.91 8.87 5.91 9.27 5.01 8.77"/><polygon id="polygon6767" class="cls-13" points="5.91 7.87 6.71 7.47 6.71 8.27 5.91 8.67 5.91 7.87"/><polygon id="polygon6769" class="cls-12" points="5.41 8.37 5.41 7.57 5.91 7.87 5.91 8.67 5.41 8.37"/><polygon id="polygon6771" class="cls-13" points="5.91 8.87 7.11 8.17 7.11 8.57 5.91 9.27 5.91 8.87"/></g><g id="вилка-3" data-name="вилка"><polygon id="polygon6774" class="cls-11" points="6.31 9.17 7.51 8.47 8.41 9.07 7.21 9.77 6.31 9.17"/><polygon id="polygon6776" class="cls-12" points="6.31 9.57 6.31 9.17 7.21 9.77 7.21 10.07 6.31 9.57"/><polygon id="polygon6778" class="cls-13" points="7.31 8.67 8.01 8.27 8.01 9.07 7.31 9.47 7.31 8.67"/><polygon id="polygon6780" class="cls-12" points="6.81 9.17 6.81 8.37 7.31 8.67 7.31 9.47 6.81 9.17"/><polygon id="polygon6782" class="cls-13" points="7.21 9.77 8.41 9.07 8.41 9.37 7.21 10.07 7.21 9.77"/><polygon id="polygon6784" class="cls-11" points="6.81 8.37 7.51 7.97 8.01 8.27 7.31 8.67 6.81 8.37"/></g><polygon id="polygon6787" class="cls-10" points="14.21 11.37 7.31 7.47 7.61 7.27 14.31 11.17 14.21 11.37"/><polygon id="polygon6789" class="cls-10" points="21.51 13.27 14.21 9.07 14.51 8.87 21.71 13.07 21.51 13.27"/><polygon id="polygon6791" class="cls-10" points="7.61 7.27 7.61 8.27 7.31 8.27 7.31 7.37 7.61 7.27"/><polygon id="polygon6793" class="cls-10" points="6.21 6.47 6.21 7.57 5.91 7.57 5.91 6.67 6.21 6.47"/><rect id="rect6795" class="cls-10" x="9.39" y="10.02" width="0.3" height="2" transform="translate(-4.78 13.77) rotate(-60)"/><rect id="rect6797" class="cls-10" x="10.01" y="10.18" width="4.9" height="0.3" transform="translate(-3.5 7.61) rotate(-30)"/><polygon id="polygon6799" class="cls-10" points="22.91 12.57 21.51 13.27 21.41 13.07 22.71 12.27 22.91 12.57"/><rect id="rect6801" class="cls-10" x="-0.39" y="8.07" width="6.9" height="0.3" transform="translate(-3.7 2.63) rotate(-30)"/><path id="path6803" class="cls-10" d="M22.91,12.47c0,.1-.1.1,0,0-.2,0-.2-.1-.2-.1s0-.1.1-.1S22.91,12.37,22.91,12.47Z"/><path id="path6805" class="cls-10" d="M11,9.47h0c-.2,0-.2-.1-.2-.1a.1.1,0,0,1,.1-.1C11,9.27,11,9.47,11,9.47Z"/><ellipse id="ellipse6807" class="cls-10" cx="7.41" cy="8.27" ry="0.1"/><ellipse id="ellipse6809" class="cls-10" cx="6.11" cy="7.57" ry="0.1"/><circle id="circle6811" class="cls-10" cx="7.51" cy="7.47" r="0.2"/><circle id="circle6813" class="cls-10" cx="6.01" cy="6.47" r="0.2"/></g><polygon id="polygon22845" class="cls-14" points="1.89 11.27 3.74 8.5 2.35 8.5 3.51 5.96 1.2 9.43 2.58 9.43 1.89 11.27"/><polygon id="polygon22847" class="cls-14" points="9.57 9.54 11.42 6.77 10.27 6.77 11.19 4 9.11 7.69 10.27 7.69 9.57 9.54"/><polygon id="polygon22849" class="cls-14" points="5.69 5.54 7.54 2.77 6.38 2.77 7.31 0 5.23 3.46 6.38 3.46 5.69 5.54"/></g></g></g></g></svg>