<svg xmlns="http://www.w3.org/2000/svg" viewBox="0 0 17.67 22.28"><defs><style>.cls-1{fill:#d1d3d4;}.cls-2{fill:#2b2b2b;}.cls-3{fill:#e6e7e8;}.cls-4{fill:#fff;}.cls-5{fill:#81e81f;opacity:0.7;isolation:isolate;}.cls-6{fill:#f1f2f2;}.cls-7{fill:#a7a9ac;}.cls-8{fill:#bcbec0;}.cls-9{fill:#141414;}.cls-10{fill:#249dd3;}</style></defs><title>hoover</title><g id="Слой_2" data-name="Слой 2"><g id="Layer_1" data-name="Layer 1"><g id="g10358"><g id="g10356"><g id="g10320"><path id="path10312" class="cls-1" d="M15.58,18.36h0v-2.2l-.7.4a3.45,3.45,0,0,0-1.3-1,10.59,10.59,0,0,0-9.5,0,3.61,3.61,0,0,0-1.3,1.1l-.6-.5v2.4h0a3.49,3.49,0,0,0,2,2.6,10.59,10.59,0,0,0,9.5,0,3.62,3.62,0,0,0,1.9-2.8Z"/><path id="path10314" class="cls-2" d="M15.48,17.26a3.58,3.58,0,0,1-1.9,2.2,8.84,8.84,0,0,1-4,1.1.32.32,0,0,0-.3.3v.3c0,.2.2.4.4.3a9.84,9.84,0,0,0,4-1.1,3.34,3.34,0,0,0,2-2.6v-1.1A4.17,4.17,0,0,1,15.48,17.26Z"/><path id="path10316" class="cls-3" d="M13.58,18.76a10.59,10.59,0,0,1-9.5,0c-2.6-1.5-2.7-4,0-5.5a10.59,10.59,0,0,1,9.5,0C16.18,14.76,16.18,17.26,13.58,18.76Z"/><path id="path10318" class="cls-4" d="M13.38,18.66a10.38,10.38,0,0,1-9.1,0c-2.5-1.5-2.5-3.8,0-5.3a10.38,10.38,0,0,1,9.1,0C15.88,14.86,15.88,17.16,13.38,18.66Z"/></g><path id="path10322" class="cls-5" d="M15.48,17.56a3.72,3.72,0,0,1-1.8,2,8.84,8.84,0,0,1-4,1.1.27.27,0,0,0-.3.3v.3c0,.2.2.3.4.3a9.37,9.37,0,0,0,3.9-1.1,3.81,3.81,0,0,0,1.9-2.3v-1C15.58,17.26,15.48,17.36,15.48,17.56Z"/><g id="g10328"><path id="path10324" class="cls-3" d="M11.38,17.46a5.72,5.72,0,0,1-5.1,0c-1.4-.8-1.4-2.1,0-2.9a5.72,5.72,0,0,1,5.1,0C12.78,15.36,12.78,16.66,11.38,17.46Z"/><path id="path10326" class="cls-1" d="M8.88,18.06a5.26,5.26,0,0,1-2.6-.6A1.8,1.8,0,0,1,5.18,16a1.8,1.8,0,0,1,1.1-1.5,5.26,5.26,0,0,1,2.6-.6,5.26,5.26,0,0,1,2.6.6,1.8,1.8,0,0,1,1.1,1.5,1.8,1.8,0,0,1-1.1,1.5A5.83,5.83,0,0,1,8.88,18.06ZM8.78,14a5.14,5.14,0,0,0-2.5.6,1.66,1.66,0,0,0-1,1.4,1.89,1.89,0,0,0,1,1.4,5.14,5.14,0,0,0,2.5.6,5.14,5.14,0,0,0,2.5-.6,1.66,1.66,0,0,0,1-1.4,1.89,1.89,0,0,0-1-1.4A4.63,4.63,0,0,0,8.78,14Z"/></g><g id="g10336"><g id="g10334"><path id="path10330" class="cls-1" d="M4.38,17.36a.6.6,0,0,1-.4-.1.1.1,0,0,1-.1-.1,2,2,0,0,1,0-2.4,4,4,0,0,1,1.2-1,7.51,7.51,0,0,1,1.8-.7,6.48,6.48,0,0,1,2-.2,14.92,14.92,0,0,1,2.1.2c.2,0,.3.1.3.2v.2a.76.76,0,0,1-.5.2h-.2a8.75,8.75,0,0,0-1.6-.2H9a7.77,7.77,0,0,0-1.6.2,5.78,5.78,0,0,0-1.4.5,2.36,2.36,0,0,0-.9.8,1.5,1.5,0,0,0,0,1.8c.1.1.1.2,0,.2s-.2.2-.3.2C4.48,17.36,4.38,17.36,4.38,17.36Z"/><path id="path10332" class="cls-6" d="M4,17.26l-.1-.1a2,2,0,0,1,0-2.4,4,4,0,0,1,1.2-1,7.51,7.51,0,0,1,1.8-.7,6.48,6.48,0,0,1,2-.2,12.31,12.31,0,0,1,2,.2c.3.1.4.2.3.4s-.4.2-.7.2a8.81,8.81,0,0,0-1.7-.2,9.85,9.85,0,0,0-1.7.2,4.71,4.71,0,0,0-1.5.6,3.92,3.92,0,0,0-1,.8,1.69,1.69,0,0,0-.3,1,1.93,1.93,0,0,0,.3,1c.1.1,0,.3-.3.4C4.38,17.36,4.18,17.26,4,17.26Z"/></g></g><g id="g10344"><path id="path10338" class="cls-7" d="M9.28,16.66h0c.1,0,.1-.1,0,0l.1-.1h0l-.1.1h0l.1.1h-.2c-.1,0-.1-.1-.1-.2v-.2c0,.1,0,.1.1.2h.6c-.6.2-.6.2-.5.1Z"/><g id="g10342"><path id="path10340" class="cls-8" d="M9.28,16.76q.3-.15,0-.3a.64.64,0,0,0-.6,0q-.3.15,0,.3A.63.63,0,0,0,9.28,16.76Z"/></g></g><g id="g10352"><path id="path10346" class="cls-7" d="M10.38,16h0l.1-.1h0l-.1.1h0l.1.1h-.2c-.1,0-.1-.1-.1-.2v-.2c0,.1,0,.1.1.2h.6c-.6.2-.5.2-.5.1Z"/><g id="g10350"><path id="path10348" class="cls-8" d="M10.38,16.06q.3-.15,0-.3a.64.64,0,0,0-.6,0q-.3.15,0,.3A.64.64,0,0,0,10.38,16.06Z"/></g></g><path id="path10354" class="cls-9" d="M10,15.36l-1.1-.6-2,1.2,1.1.6Z"/></g><path id="_Контур_" data-name="&lt;Контур&gt;" class="cls-10" d="M7.55,15.09a2.94,2.94,0,0,1,2.66,0,.81.81,0,0,1,0,1.53,2.94,2.94,0,0,1-2.66,0A.81.81,0,0,1,7.55,15.09Z"/><path id="_Контур_2" data-name="&lt;Контур&gt;" class="cls-10" d="M8.83,13a1.93,1.93,0,0,1,1.94-.19l.35-.61a2.28,2.28,0,0,0-2.29.23,6.64,6.64,0,0,0-2.29,2.42l.35.2A5.62,5.62,0,0,1,8.83,13Z"/><path id="_Контур_3" data-name="&lt;Контур&gt;" class="cls-10" d="M8.83,11.31a2.93,2.93,0,0,1,3-.29l.35-.61a3.28,3.28,0,0,0-3.3.32,9.56,9.56,0,0,0-3.3,3.49l.35.2A8.54,8.54,0,0,1,8.83,11.31Z"/><path id="_Контур_4" data-name="&lt;Контур&gt;" class="cls-10" d="M8.83,9.59a4,4,0,0,1,4-.39l.53-.91c-1.16-.67-2.76-.58-4.53.45A13.11,13.11,0,0,0,4.3,13.52l.53.3A11.59,11.59,0,0,1,8.83,9.59Z"/><path id="_Контур_5" data-name="&lt;Контур&gt;" class="cls-10" d="M8.83,7.58c2-1.18,3.89-1.29,5.23-.51l.53-.91c-1.48-.85-3.51-.73-5.76.57a16.67,16.67,0,0,0-5.76,6.09l.53.3A15.15,15.15,0,0,1,8.83,7.58Z"/><path id="_Контур_6" data-name="&lt;Контур&gt;" class="cls-10" d="M8.83,5.5c2.54-1.47,4.84-1.6,6.51-.64L16,3.65c-1.85-1.07-4.4-.91-7.21.71A20.86,20.86,0,0,0,1.62,12l.7.41A18.83,18.83,0,0,1,8.83,5.5Z"/><path id="_Контур_7" data-name="&lt;Контур&gt;" class="cls-10" d="M8.83,2.85C12,1,14.88.85,17,2l.7-1.22C15.4-.47,12.28-.29,8.83,1.7A25.56,25.56,0,0,0,0,11l.7.41A23.53,23.53,0,0,1,8.83,2.85Z"/></g></g></g></svg>