<svg xmlns="http://www.w3.org/2000/svg" viewBox="0 0 13.5 10.15"><defs><style>.cls-1{fill:#d1d3d4;}.cls-2{fill:#2b2b2b;}.cls-3{fill:#e6e7e8;}.cls-4{fill:#fff;}.cls-5{fill:#81e81f;opacity:0.7;}.cls-6{fill:#f1f2f2;}.cls-7{fill:#a7a9ac;}.cls-8{fill:#bcbec0;}.cls-9{fill:#141414;}</style></defs><title>Ресурс 2</title><g id="Слой_2" data-name="Слой 2"><g id="Layer_1" data-name="Layer 1"><path class="cls-1" d="M13.5,6.27h0V4.1l-.69.44a4.92,4.92,0,0,0-1.29-1A10.55,10.55,0,0,0,2,3.49,4.75,4.75,0,0,0,.63,4.58L0,4.08V6a2.26,2.26,0,0,0,0,.4H0A3.5,3.5,0,0,0,2,9a10.55,10.55,0,0,0,9.55,0,3.34,3.34,0,0,0,2-2.72h0Z"/><path class="cls-2" d="M13.44,5.11a3.67,3.67,0,0,1-1.9,2.23,9.32,9.32,0,0,1-4,1.11.34.34,0,0,0-.32.34v.33a.35.35,0,0,0,.37.34,9.29,9.29,0,0,0,4-1.11c1.29-.74,1.94-1.61,2-2.59V4.65A2.24,2.24,0,0,1,13.44,5.11Z"/><path class="cls-3" d="M11.54,6.66A10.55,10.55,0,0,1,2,6.64c-2.64-1.53-2.66-4,0-5.51a10.55,10.55,0,0,1,9.55,0C14.15,2.68,14.17,5.14,11.54,6.66Z"/><path class="cls-4" d="M11.32,6.53a10.06,10.06,0,0,1-9.1,0c-2.52-1.46-2.53-3.81,0-5.25a10.06,10.06,0,0,1,9.1,0C13.81,2.73,13.82,5.09,11.32,6.53Z"/><path class="cls-5" d="M13.43,5.4a3.68,3.68,0,0,1-1.85,2,8.74,8.74,0,0,1-4,1.12.31.31,0,0,0-.32.29V9.1a.33.33,0,0,0,.37.28,9.92,9.92,0,0,0,3.91-1.12A3.33,3.33,0,0,0,13.44,6l0-1A1.58,1.58,0,0,1,13.43,5.4Z"/><path class="cls-3" d="M9.33,5.32a5.62,5.62,0,0,1-5.08,0c-1.41-.81-1.42-2.13,0-2.93a5.62,5.62,0,0,1,5.08,0C10.72,3.2,10.72,4.51,9.33,5.32Z"/><path class="cls-1" d="M6.8,6a5.25,5.25,0,0,1-2.58-.62A1.85,1.85,0,0,1,3.13,3.84,1.82,1.82,0,0,1,4.2,2.33a5.19,5.19,0,0,1,2.55-.61,5.25,5.25,0,0,1,2.58.62,1.85,1.85,0,0,1,1.09,1.52,1.82,1.82,0,0,1-1.07,1.5A5.19,5.19,0,0,1,6.8,6Zm0-4.15a5.09,5.09,0,0,0-2.5.6,1.73,1.73,0,0,0-1,1.41,1.75,1.75,0,0,0,1,1.43,5.14,5.14,0,0,0,2.53.61,5.09,5.09,0,0,0,2.5-.6,1.73,1.73,0,0,0,1-1.41,1.75,1.75,0,0,0-1-1.43A5.14,5.14,0,0,0,6.75,1.83Z"/><path class="cls-1" d="M2.3,5.26a.79.79,0,0,1-.39-.09.4.4,0,0,1-.13-.11,2.1,2.1,0,0,1-.41-1.21,2.07,2.07,0,0,1,.4-1.21,3.68,3.68,0,0,1,1.2-1A6.59,6.59,0,0,1,4.78.89a9,9,0,0,1,2-.23A9.07,9.07,0,0,1,8.87.9a.46.46,0,0,1,.35.25.24.24,0,0,1,0,.23.63.63,0,0,1-.51.21l-.2,0a7.25,7.25,0,0,0-1.65-.19h0a7.23,7.23,0,0,0-1.64.18,5.25,5.25,0,0,0-1.44.55,2.89,2.89,0,0,0-.94.82,1.58,1.58,0,0,0-.31.92,1.6,1.6,0,0,0,.32.92.24.24,0,0,1,0,.23.46.46,0,0,1-.34.24Z"/><path class="cls-6" d="M1.95,5.11A.34.34,0,0,1,1.84,5a2,2,0,0,1-.4-1.18,2,2,0,0,1,.39-1.17A3.62,3.62,0,0,1,3,1.64,6.52,6.52,0,0,1,4.79,1,9.17,9.17,0,0,1,8.86,1c.26.06.38.23.28.38a.66.66,0,0,1-.65.16,7.48,7.48,0,0,0-3.32,0A5.32,5.32,0,0,0,3.71,2a3,3,0,0,0-1,.84,1.64,1.64,0,0,0-.32,1,1.66,1.66,0,0,0,.33,1c.1.15,0,.32-.27.38A.79.79,0,0,1,1.95,5.11Z"/><path class="cls-7" d="M7.24,4.59h0v0h0v0h0v0h0v0h0v.18h0v0h0v0H7.21l0,0-.06,0H6.66l-.05,0a.2.2,0,0,1-.12-.16V4.47a.2.2,0,0,0,.12.16l.06,0h0l.06,0h.38l.06,0,0,0h0Z"/><path class="cls-8" d="M7.18,4.63a.17.17,0,0,0,0-.33.63.63,0,0,0-.57,0,.17.17,0,0,0,0,.33A.63.63,0,0,0,7.18,4.63Z"/><path class="cls-7" d="M8.36,3.87h0v0h0v0h0v0h0v0h0v.18h0v0h0V4H8.34l0,0-.06,0H7.78l-.05,0a.2.2,0,0,1-.12-.16V3.75a.2.2,0,0,0,.12.16l.06,0h0l.06,0h.38l.06,0,0,0h0Z"/><path class="cls-8" d="M8.3,3.91a.18.18,0,0,0,0-.33.63.63,0,0,0-.57,0,.17.17,0,0,0,0,.33A.63.63,0,0,0,8.3,3.91Z"/><path class="cls-9" d="M7.89,3.22,6.77,2.57l-2,1.17,1.12.65Z"/></g></g></svg>