<svg xmlns="http://www.w3.org/2000/svg" xmlns:xlink="http://www.w3.org/1999/xlink" viewBox="0 0 10.82 11.75"><defs><style>.cls-1{fill:#503b2c;}.cls-2{fill:#594537;}.cls-3{fill:#5e4534;}.cls-4{fill:url(#Безымянный_градиент_90);}.cls-5{opacity:0.5;isolation:isolate;fill:url(#Безымянный_градиент_91);}.cls-6{fill:url(#Безымянный_градиент_83);}.cls-7{fill:#a5c63b;}.cls-8{fill:#bdc3c7;}.cls-9{fill:#a0ad27;}.cls-10{fill:#b6cc36;}.cls-11{fill:#414042;}.cls-12{fill:#58595b;}.cls-13{fill:#c8e551;}.cls-14{fill:#7f8c8d;}.cls-15{fill:#95a5a6;}</style><radialGradient id="Безымянный_градиент_90" cx="3.66" cy="554.18" r="3.66" gradientTransform="translate(0 -548)" gradientUnits="userSpaceOnUse"><stop offset="0" stop-color="#fff0be"/><stop offset="0.3" stop-color="#fff0a6" stop-opacity="0.7"/><stop offset="0.75" stop-color="#fff088" stop-opacity="0.25"/><stop offset="1" stop-color="#fff07c" stop-opacity="0"/></radialGradient><radialGradient id="Безымянный_градиент_91" cx="3.66" cy="554.18" r="1.63" gradientTransform="translate(0 -548)" gradientUnits="userSpaceOnUse"><stop offset="0" stop-color="#fff" stop-opacity="0"/><stop offset="0.86" stop-color="#fff" stop-opacity="0.86"/><stop offset="1" stop-color="#fff"/></radialGradient><linearGradient id="Безымянный_градиент_83" x1="2.48" y1="553.95" x2="4.69" y2="553.95" gradientTransform="translate(0 -548)" gradientUnits="userSpaceOnUse"><stop offset="0" stop-color="#fff"/><stop offset="1" stop-color="#ecf0f1"/></linearGradient></defs><title>lamp_in_kids_rooom</title><g id="Слой_2" data-name="Слой 2"><g id="Layer_1" data-name="Layer 1"><g id="g12854"><g id="g11932"><g id="g11892"><path id="path11855" class="cls-1" d="M3.62,4c.2,0,.3,0,.4.1s.2.2.2.3-.1.2-.2.3a.6.6,0,0,1-.4.1c-.2,0-.3,0-.4-.1S3,4.5,3,4.4s.1-.2.2-.3S3.42,4,3.62,4Z"/><polygon id="polygon11857" class="cls-1" points="2.92 4.8 2.92 4.4 3.32 4.4 2.92 4.8"/><polygon id="polygon11859" class="cls-1" points="4.22 4.4 4.22 4.8 3.92 4.7 4.22 4.4"/><path id="path11861" class="cls-2" d="M2.92,4.3h1.2L4,4H4a.1.1,0,0,0-.1-.1.37.37,0,0,0-.3-.1c-.1,0-.3,0-.3.1l-.1.1h0Z"/><path id="path11863" class="cls-1" d="M3.62,4c.2,0,.3,0,.4.1s.2.2.2.3-.1.2-.2.3a.6.6,0,0,1-.4.1c-.2,0-.3,0-.4-.1S3,4.5,3,4.4s.1-.2.2-.3S3.42,4,3.62,4Z"/><path id="path11865" class="cls-3" d="M3.62,4.4c.2,0,.3,0,.4.1s.2.2.2.3-.1.2-.2.3a.6.6,0,0,1-.4.1c-.2,0-.3,0-.4-.1S3,4.9,3,4.8s.1-.2.2-.3A1,1,0,0,1,3.62,4.4Z"/><circle id="circle19229" class="cls-4" cx="3.63" cy="6.2" r="3.63"/><circle id="circle19238" class="cls-5" cx="3.63" cy="6.2" r="1.65"/><path id="path11872" class="cls-6" d="M2.52,6.3a1.1,1.1,0,0,0,2.2,0,1.14,1.14,0,0,0-.3-.8l-.2-.7c0-.1,0-.2-.2-.2s-.1-.1-.2-.1h-.3c-.1,0-.2,0-.2.1s-.2.1-.2.2h0l-.2.7A.91.91,0,0,0,2.52,6.3Z"/><g id="g11890"><g id="g11886"><g id="g11876"><path id="path11874" class="cls-1" d="M3.62,5h0c0,.1.1.1,0,0l-.3.7h0l.3-.7Z"/></g><g id="g11880"><path id="path11878" class="cls-1" d="M3.52,5h0l.4.6h0L3.52,5Z"/></g><g id="g11884"><path id="path11882" class="cls-7" d="M3.32,5.7h0l.1.2V5.8h.2v0h.2v.1l.1-.1h0l-.1.1h-.2v0h-.2v0h-.2l.1-.2Z"/></g></g><path id="path11888" class="cls-8" d="M3.42,5.1V4.5h.3v.6h0a.1.1,0,0,1-.1.1h-.1a.1.1,0,0,1-.1-.1Z"/></g></g><g id="g11898"><path id="path11894" class="cls-9" d="M10.82,10.3h0V9.9h0a1.34,1.34,0,0,0-.7-.8,4,4,0,0,0-3.7,0,1.34,1.34,0,0,0-.7.8h-.1v.3a1.21,1.21,0,0,0,.8,1.1,4,4,0,0,0,3.7,0,1.69,1.69,0,0,0,.7-1Z"/><path id="path11896" class="cls-10" d="M10,11a4,4,0,0,1-3.7,0c-1-.6-1-1.6,0-2.1a4,4,0,0,1,3.7,0C11,9.5,11,10.4,10,11Z"/></g><g id="g11902"><path id="path11900" class="cls-11" d="M8.92,9.4h0c-.2,0-.2-.1-.2-.3l1.1-5.6c0-.1.1-.2.3-.2s.2.1.2.3L9.22,9.2C9.12,9.3,9.12,9.4,8.92,9.4Z"/></g><g id="g11906"><path id="path11904" class="cls-11" d="M7.92,9.9h0c-.2,0-.2-.1-.2-.3L8.82,4c0-.1.1-.2.3-.2s.2.1.2.3L8.22,9.7C8.12,9.8,8,9.9,7.92,9.9Z"/></g><g id="g11912"><path id="path11908" class="cls-11" d="M8.52,4.6h0l.5.3H9c.1,0,0-.2.2-.3a2,2,0,0,0,.9-1.5c0-.2.3-.2.2-.3h0l-.4-.3a.85.85,0,0,0-.7,0A2,2,0,0,0,8.32,4a.45.45,0,0,0,.2.6Z"/><path id="path11910" class="cls-12" d="M8.72,4.3a1.72,1.72,0,0,1,.9-1.5c.5-.3.9-.1.9.5a1.72,1.72,0,0,1-.9,1.5C9.12,5.1,8.72,4.9,8.72,4.3Z"/></g><g id="g11916"><path id="path11914" class="cls-11" d="M8.92,3.1h0L3.52.8a.19.19,0,0,1-.1-.3.19.19,0,0,1,.3-.1L9,2.7a.19.19,0,0,1,.1.3A.35.35,0,0,1,8.92,3.1Z"/></g><g id="g11920"><path id="path11918" class="cls-11" d="M8.52,3.7h0L3.12,1.4A.19.19,0,0,1,3,1.1a.19.19,0,0,1,.3-.1l5.3,2.3a.19.19,0,0,1,.1.3C8.62,3.6,8.62,3.7,8.52,3.7Z"/></g><path id="path11922" class="cls-13" d="M6.22,4.8h0L4.92,2.1h0a.78.78,0,0,0-.4-.4h0L4.42.6a.87.87,0,0,0-.9-.6h0a1,1,0,0,0-.9.6l-.1,1.1h0c-.2.1-.3.3-.4.4h0L.82,4.8h0c-.3.5,0,1.2.7,1.6a4.67,4.67,0,0,0,4,0C6.22,6,6.52,5.4,6.22,4.8Z"/><g id="g11930"><path id="path11924" class="cls-14" d="M6.82,10.4c-.1,0-.2,0-.2-.1s-.1-.1-.1-.2,0-.1.1-.2.1-.1.2-.1.2,0,.2.1.1.1.1.2,0,.1-.1.2S6.92,10.4,6.82,10.4Z"/><path id="path11926" class="cls-15" d="M7,10.1c.1.1.1.2,0,.2a.3.3,0,0,1-.4,0c-.1-.1-.1-.2,0-.2A.3.3,0,0,1,7,10.1Z"/><path id="path11928" class="cls-15" d="M7.12,10.2h-.6V10a.27.27,0,0,1,.3-.3h0a.27.27,0,0,1,.3.3v.2Z"/></g></g></g></g></g></svg>