<svg xmlns="http://www.w3.org/2000/svg" viewBox="0 0 4.4 9.79"><defs><style>.cls-1{isolation:isolate;}.cls-2{fill:#302820;}.cls-3{fill:#363f44;}.cls-4{fill:#272f33;}.cls-5{fill:#64798b;}.cls-6{fill:#d4d7d9;}.cls-7{fill:#fff;}.cls-8{fill:#83dcff;}.cls-9{fill:#3fa59b;}.cls-10{fill:#eeae55;}.cls-11{fill:#d35443;}.cls-12{fill:#d6caba;}</style></defs><title>pan-item</title><g id="Слой_2" data-name="Слой 2"><g id="Layer_1" data-name="Layer 1"><g id="g7376"><g id="g7126"><g id="g6105"><g id="g6103"><g id="g6101"><g class="cls-1"><polygon class="cls-2" points="1.39 6.06 1.39 6.23 1.22 6.33 1.22 6.16 1.39 6.06"/><polygon class="cls-3" points="1.22 6.16 1.22 6.33 0.88 6.13 0.88 5.96 1.22 6.16"/><polygon class="cls-4" points="0.88 5.96 0.88 6.13 0.34 6.45 0.34 6.28 0.88 5.96"/><polygon class="cls-5" points="1.39 6.06 1.22 6.16 0.88 5.96 0.34 6.28 0.68 6.47 0.51 6.57 0 6.27 0.88 5.76 1.39 6.06"/><polygon class="cls-2" points="0.68 6.47 0.68 6.64 0.51 6.74 0.51 6.57 0.68 6.47"/><polygon class="cls-3" points="0.51 6.57 0.51 6.74 0 6.45 0 6.27 0.51 6.57"/></g><path class="cls-6" d="M4,7.16v0c-.18.51-.87.47-1.35.54C1.94,7.82.53,7.89.36,7V8.72c0,.57.65.85,1.12,1a2.72,2.72,0,0,0,2.08-.27A.88.88,0,0,0,4,8.73V7A.63.63,0,0,1,4,7.16Z"/><path class="cls-7" d="M3.47,6.22a.79.79,0,0,1,0,1.49,2.84,2.84,0,0,1-2.58,0,.79.79,0,0,1,0-1.49A2.84,2.84,0,0,1,3.47,6.22Z"/><path class="cls-6" d="M2.19,7.9A2.5,2.5,0,0,1,1,7.61.8.8,0,0,1,.48,7a.79.79,0,0,1,.47-.64A2.48,2.48,0,0,1,2.18,6a2.5,2.5,0,0,1,1.23.29A.8.8,0,0,1,3.88,7a.79.79,0,0,1-.47.64A2.48,2.48,0,0,1,2.19,7.9Z"/><path class="cls-8" d="M3.41,7a2.5,2.5,0,0,0-1.23-.29A2.48,2.48,0,0,0,.95,7a1.15,1.15,0,0,0-.34.28A1.17,1.17,0,0,0,1,7.61a2.5,2.5,0,0,0,1.23.29,2.48,2.48,0,0,0,1.23-.29,1.15,1.15,0,0,0,.34-.28A1.16,1.16,0,0,0,3.41,7Z"/><g class="cls-1"><polygon class="cls-3" points="4.06 7.83 4.06 8 3.72 7.8 3.72 7.63 4.06 7.83"/><polygon class="cls-5" points="4.4 7.83 3.52 8.34 3.01 8.04 3.17 7.94 3.52 8.14 4.06 7.83 3.72 7.63 3.88 7.53 4.4 7.83"/><polygon class="cls-4" points="4.4 7.83 4.4 8 3.52 8.51 3.52 8.34 4.4 7.83"/><polygon class="cls-3" points="3.52 8.34 3.52 8.51 3 8.21 3.01 8.04 3.52 8.34"/></g><path class="cls-9" d="M1.7,7.1a.12.12,0,0,1,0-.06l0,0a.12.12,0,0,0-.14,0s0,.08-.06.1l-.07,0s0,.07,0,.07a.17.17,0,0,0,.14-.08.1.1,0,0,0,.2,0A0,0,0,0,1,1.7,7.1Z"/><path class="cls-9" d="M2.64,7.6a.12.12,0,0,0,0-.06l0,0a.12.12,0,0,1,.14,0s0,.08.06.1l.07,0s0,.07,0,.07a.17.17,0,0,1-.14-.08.1.1,0,0,1-.2,0A0,0,0,0,0,2.64,7.6Z"/><path class="cls-10" d="M3.33,7.21a.12.12,0,0,1,0-.06l0,0a.12.12,0,0,0-.14,0s0,.08-.06.1L3,7.3s0,.07,0,.07a.17.17,0,0,0,.14-.08.1.1,0,0,0,.2,0A0,0,0,0,1,3.33,7.21Z"/><path class="cls-7" d="M2.74,7.05,2.69,7s0-.05,0-.07-.05,0-.08,0a.13.13,0,0,0,0,.09H2.5a.06.06,0,0,0,0,.07.46.46,0,0,1,0,.07s0,.08,0,.11a.08.08,0,0,0,.06,0h0s0-.06,0-.09.08,0,.11,0A0,0,0,0,0,2.74,7.05Z"/><path class="cls-7" d="M1.71,7.67s0,0,0-.06.05,0,.07,0,0-.05,0-.08H1.74a0,0,0,0,1,0,0v0a.06.06,0,0,0-.07,0l-.07,0s-.08,0-.11,0a.08.08,0,0,0,0,.06.05.05,0,0,0,0,0s.06,0,.09,0,0,.08,0,.11A0,0,0,0,0,1.71,7.67Z"/><path class="cls-11" d="M1.1,7.12,1,7.14s0,0-.07,0-.05,0-.07,0A.13.13,0,0,0,1,7.21h0l0,0s0,0,0,.06l.07,0s0,.07.09.07a.08.08,0,0,0,.05,0,.05.05,0,0,0,0,0s0,0-.06-.07,0-.06.05-.1A0,0,0,0,0,1.1,7.12Z"/><path class="cls-11" d="M2.27,7.51h0v0a.07.07,0,0,1,0,0h0l-.07,0a.09.09,0,0,0-.08,0s0,.06,0,.08l0,0a0,0,0,0,0,0,.06s0-.05.06-.06h0a.2.2,0,0,0,.09,0,.09.09,0,0,0,.08,0A.06.06,0,0,0,2.27,7.51Z"/><path class="cls-10" d="M2.15,7.14a0,0,0,0,1,0,0h.06v0l0-.07a.09.09,0,0,0,0-.08s-.06,0-.08,0l0,0a0,0,0,0,0-.05,0S2,7,2,7A.06.06,0,0,1,2,7a.2.2,0,0,0,0,.1.09.09,0,0,0,.06.07A.06.06,0,0,0,2.15,7.14Z"/><path class="cls-12" d="M2.33,7.18a2.63,2.63,0,0,1-.32-2c.19-.52.56-.93.7-1.47a1.76,1.76,0,0,0-.42-1.41A2.18,2.18,0,0,1,2.33,0s0-.06,0,0a2.21,2.21,0,0,0-.48,1.71A4.41,4.41,0,0,0,2,2.56c.13.4.36.7.25,1.15a14.17,14.17,0,0,0-.52,1.64A2.66,2.66,0,0,0,2.3,7.19a0,0,0,0,0,0,0Z"/><path class="cls-12" d="M2.92,6c-.34-.95.36-1.41.63-2.22A1.23,1.23,0,0,0,3.2,2.5s-.09,0-.08,0a1.68,1.68,0,0,1,.2,1.07,5,5,0,0,1-.54,1,1.27,1.27,0,0,0,.09,1.41s0,0,0,0Z"/><path class="cls-12" d="M1.37,4.52a1,1,0,0,0,.27-1A3.21,3.21,0,0,0,1.4,3a7.77,7.77,0,0,1-.28-.82S1,2.08,1,2.13A1,1,0,0,0,1.14,3c.08.16.19.31.28.47a1.17,1.17,0,0,1-.08,1s0,0,0,0Z"/></g></g></g></g></g></g></g></svg>