<svg xmlns="http://www.w3.org/2000/svg" xmlns:xlink="http://www.w3.org/1999/xlink" viewBox="0 0 20.13 21.41"><defs><style>.cls-1{fill:#bdc3c7;}.cls-2{fill:#bcbec0;}.cls-3{fill:#ecf0f1;}.cls-4{isolation:isolate;}.cls-5{fill:#7f8b8c;}.cls-6{fill:url(#Безымянный_градиент_12);}.cls-7{fill:url(#Безымянный_градиент_12-2);}.cls-8{fill:#262626;}.cls-9{fill:#2b2b2b;}</style><linearGradient id="Безымянный_градиент_12" x1="75.68" y1="53.45" x2="81.4" y2="51.92" gradientTransform="translate(-82.91 25.9) rotate(-45)" gradientUnits="userSpaceOnUse"><stop offset="0" stop-color="#4ba1f7"/><stop offset="0.95" stop-opacity="0"/></linearGradient><linearGradient id="Безымянный_градиент_12-2" x1="-67.28" y1="119.76" x2="-67.28" y2="108.52" gradientTransform="matrix(0, -1, -0.87, -0.5, 114.11, 4.45)" xlink:href="#Безымянный_градиент_12"/></defs><title>Ресурс 10</title><g id="Слой_2" data-name="Слой 2"><g id="Layer_1" data-name="Layer 1"><polygon class="cls-1" points="12.16 19.89 2.25 14.17 6.79 11.64 16.7 17.36 12.16 19.89"/><polygon class="cls-2" points="2.25 13.94 2.25 14.17 2.52 14.22 2.73 13.99 2.25 13.94"/><polygon class="cls-2" points="16.7 17.13 16.7 17.36 16.37 17.28 16.7 17.13"/><polygon class="cls-3" points="12.16 19.66 2.25 13.94 6.79 11.4 16.7 17.13 12.16 19.66"/><g class="cls-4"><path class="cls-5" d="M7.11,12.3s0,0,0,0l-.32.18H6.73l-.58-.34s0,0,0,0L6.47,12h.06Z"/></g><g class="cls-4"><path class="cls-5" d="M7.76,12.68s0,0,0,0l-.32.18H7.38l-.47-.28s0,0,0,0l.32-.18h.06Z"/></g><g class="cls-4"><path class="cls-5" d="M8.4,13.06s0,0,0,0l-.32.18H8L7.55,13s0,0,0,0l.32-.18h.06Z"/></g><g class="cls-4"><path class="cls-5" d="M9,13.43s0,0,0,0l-.32.18H8.67l-.47-.28s0,0,0,0l.32-.18h.06Z"/></g><g class="cls-4"><path class="cls-5" d="M9.69,13.81s0,0,0,0L9.37,14H9.31l-.47-.28s0,0,0,0l.32-.18h.06Z"/></g><g class="cls-4"><path class="cls-5" d="M10.33,14.19s0,0,0,0L10,14.4H10l-.47-.28s0,0,0,0l.32-.18h.06Z"/></g><g class="cls-4"><path class="cls-5" d="M11,14.56s0,0,0,0l-.32.18H10.6l-.47-.28s0,0,0,0l.32-.18h.06Z"/></g><g class="cls-4"><path class="cls-5" d="M11.62,14.94s0,0,0,0l-.32.18h-.06l-.47-.28s0,0,0,0l.32-.18h.06Z"/></g><g class="cls-4"><path class="cls-5" d="M12.26,15.31s0,0,0,0l-.32.18h-.06l-.47-.28s0,0,0,0l.32-.18h.06Z"/></g><g class="cls-4"><path class="cls-5" d="M12.91,15.69s0,0,0,0l-.32.18h-.06l-.47-.28s0,0,0,0l.32-.18h.06Z"/></g><g class="cls-4"><path class="cls-5" d="M13.55,16.07s0,0,0,0l-.32.18h-.06L12.7,16s0,0,0,0l.32-.18h.06Z"/></g><g class="cls-4"><path class="cls-5" d="M14.19,16.44s0,0,0,0l-.32.18h-.06l-.47-.28s0,0,0,0l.32-.18h.06Z"/></g><g class="cls-4"><path class="cls-5" d="M14.84,16.82s0,0,0,0l-.32.18h-.06L14,16.76s0,0,0,0l.32-.18h.06Z"/></g><g class="cls-4"><path class="cls-5" d="M15.54,17.23s0,0,0,0l-.32.18h-.06l-.6-.35s0,0,0,0l.32-.18h.06Z"/></g><g class="cls-4"><path class="cls-5" d="M6.64,12.57s0,0,0,0l-.43.25H6.15l-.58-.34s0,0,0,0L6,12.23h.06Z"/></g><g class="cls-4"><path class="cls-5" d="M7.29,13s0,0,0,0l-.43.25H6.8L6.32,13s0,0,0,0l.43-.25h.06Z"/></g><g class="cls-4"><path class="cls-5" d="M7.94,13.34s0,0,0,0l-.43.25H7.45L7,13.34s0,0,0,0l.43-.25h.06Z"/></g><g class="cls-4"><path class="cls-5" d="M8.59,13.72s0,0,0,0L8.16,14H8.1l-.48-.28s0,0,0,0l.43-.25h.06Z"/></g><g class="cls-4"><path class="cls-5" d="M9.25,14.1s0,0,0,0l-.43.25H8.76l-.48-.28s0,0,0,0l.43-.25h.06Z"/></g><g class="cls-4"><path class="cls-5" d="M9.9,14.48s0,0,0,0l-.43.25H9.41l-.48-.28s0,0,0,0l.43-.25h.06Z"/></g><g class="cls-4"><path class="cls-5" d="M10.55,14.86s0,0,0,0l-.43.25h-.06l-.48-.28s0,0,0,0l.43-.25h.06Z"/></g><g class="cls-4"><path class="cls-5" d="M11.2,15.25s0,0,0,0l-.43.25h-.06l-.48-.28s0,0,0,0l.43-.25h.06Z"/></g><g class="cls-4"><path class="cls-5" d="M11.86,15.63s0,0,0,0l-.43.25h-.06l-.48-.28s0,0,0,0l.43-.25h.06Z"/></g><g class="cls-4"><path class="cls-5" d="M12.51,16s0,0,0,0l-.43.25H12L11.54,16s0,0,0,0l.43-.25H12Z"/></g><g class="cls-4"><path class="cls-5" d="M13.16,16.39s0,0,0,0l-.43.25h-.06l-.48-.28s0,0,0,0l.43-.25h.06Z"/></g><g class="cls-4"><path class="cls-5" d="M13.82,16.77s0,0,0,0l-.43.25h-.06l-.48-.28s0,0,0,0l.43-.25h.06Z"/></g><g class="cls-4"><path class="cls-5" d="M6.17,13s0,0,0,0l-.43.25H5.68L5,12.84s0,0,0,0l.43-.25h.06Z"/></g><g class="cls-4"><path class="cls-5" d="M6.83,13.36s0,0,0,0l-.43.25H6.35l-.48-.28s0,0,0,0l.43-.25h.06Z"/></g><g class="cls-4"><path class="cls-5" d="M5.73,13.38s0,0,0,0l-.43.25H5.24l-.83-.48s0,0,0,0l.43-.25H4.9Z"/></g><g class="cls-4"><path class="cls-5" d="M7.49,13.74s0,0,0,0L7.06,14H7l-.48-.28s0,0,0,0l.43-.25H7Z"/></g><g class="cls-4"><path class="cls-5" d="M8.14,14.12s0,0,0,0l-.43.25H7.65l-.48-.28s0,0,0,0l.43-.25h.06Z"/></g><g class="cls-4"><path class="cls-5" d="M8.79,14.5s0,0,0,0l-.43.25H8.3l-.48-.28s0,0,0,0l.43-.25h.06Z"/></g><g class="cls-4"><path class="cls-5" d="M9.45,14.88s0,0,0,0L9,15.17H9l-.48-.28s0,0,0,0l.43-.25H9Z"/></g><g class="cls-4"><path class="cls-5" d="M10.1,15.27s0,0,0,0l-.43.25H9.61l-.48-.28s0,0,0,0L9.56,15h.06Z"/></g><g class="cls-4"><path class="cls-5" d="M10.75,15.65s0,0,0,0l-.43.25h-.06l-.48-.28s0,0,0,0l.43-.25h.06Z"/></g><g class="cls-4"><path class="cls-5" d="M11.4,16s0,0,0,0l-.43.25h-.06L10.43,16s0,0,0,0l.43-.25h.06Z"/></g><g class="cls-4"><path class="cls-5" d="M12.06,16.41s0,0,0,0l-.43.25h-.06l-.48-.28s0,0,0,0l.43-.25h.06Z"/></g><g class="cls-4"><path class="cls-5" d="M12.71,16.79s0,0,0,0l-.43.25h-.06l-.48-.28s0,0,0,0l.43-.25h.06Z"/></g><g class="cls-4"><path class="cls-5" d="M13.36,17.17s0,0,0,0l-.43.25h-.06l-.48-.28s0,0,0,0l.43-.25h.06Z"/></g><g class="cls-4"><path class="cls-5" d="M6.38,13.76s0,0,0,0L6,14H5.89l-.48-.28s0,0,0,0l.43-.25H5.9Z"/></g><g class="cls-4"><path class="cls-5" d="M7,14.14s0,0,0,0l-.43.25H6.54l-.48-.28s0,0,0,0l.43-.25h.06Z"/></g><g class="cls-4"><path class="cls-5" d="M7.69,14.52s0,0,0,0l-.43.25H7.2l-.48-.28s0,0,0,0l.43-.25h.06Z"/></g><g class="cls-4"><path class="cls-5" d="M8.34,14.91s0,0,0,0l-.43.25H7.85l-.48-.28s0,0,0,0l.43-.25h.06Z"/></g><g class="cls-4"><path class="cls-5" d="M9,15.29s0,0,0,0l-.43.25H8.5L8,15.29s0,0,0,0L8.45,15h.06Z"/></g><g class="cls-4"><path class="cls-5" d="M9.64,15.67s0,0,0,0L9.21,16H9.15l-.48-.28s0,0,0,0l.43-.25h.06Z"/></g><g class="cls-4"><path class="cls-5" d="M10.3,16.05s0,0,0,0l-.43.25H9.81l-.48-.28s0,0,0,0l.43-.25h.06Z"/></g><g class="cls-4"><path class="cls-5" d="M10.95,16.43s0,0,0,0l-.43.25h-.06L10,16.43s0,0,0,0l.43-.25h.06Z"/></g><g class="cls-4"><path class="cls-5" d="M11.6,16.81s0,0,0,0l-.43.25h-.06l-.48-.28s0,0,0,0l.43-.25h.06Z"/></g><g class="cls-4"><path class="cls-5" d="M12.26,17.2s0,0,0,0l-.43.25h-.06l-.48-.28s0,0,0,0l.43-.25h.06Z"/></g><g class="cls-4"><path class="cls-5" d="M5.05,13.65s0,0,0,0l-.43.25H4.56l-.72-.42s0,0,0,0l.43-.25h.06Z"/></g><g class="cls-4"><path class="cls-5" d="M5.71,14s0,0,0,0l-.43.25H5.22L4.74,14s0,0,0,0l.43-.25h.06Z"/></g><g class="cls-4"><path class="cls-5" d="M6.36,14.41s0,0,0,0l-.43.25H5.87l-.48-.28s0,0,0,0l.43-.25h.06Z"/></g><g class="cls-4"><path class="cls-5" d="M7,14.79s0,0,0,0l-.43.25H6.52L6,14.79s0,0,0,0l.43-.25h.06Z"/></g><g class="cls-4"><path class="cls-5" d="M7.67,15.18s0,0,0,0l-.43.25H7.18l-.48-.28s0,0,0,0l.43-.25h.06Z"/></g><g class="cls-4"><path class="cls-5" d="M8.32,15.56s0,0,0,0l-.43.25H7.83l-.48-.28s0,0,0,0l.43-.25h.06Z"/></g><g class="cls-4"><path class="cls-5" d="M9,15.94s0,0,0,0l-.43.25H8.48L8,15.94s0,0,0,0l.43-.25h.06Z"/></g><g class="cls-4"><path class="cls-5" d="M9.62,16.32s0,0,0,0l-.43.25H9.13l-.48-.28s0,0,0,0L9.09,16h.06Z"/></g><g class="cls-4"><path class="cls-5" d="M10.28,16.7s0,0,0,0L9.85,17H9.79l-.48-.28s0,0,0,0l.43-.25H9.8Z"/></g><g class="cls-4"><path class="cls-5" d="M10.93,17.08s0,0,0,0l-.43.25h-.06L10,17.08s0,0,0,0l.43-.25h.06Z"/></g><g class="cls-4"><path class="cls-5" d="M11.58,17.46s0,0,0,0l-.43.25h-.06l-.48-.28s0,0,0,0l.43-.25h.06Z"/></g><g class="cls-4"><path class="cls-5" d="M15.07,17.51s0,0,0,0l-.43.25h-.06L14,17.48l-.06,0-.49-.29s0,0,0,0l.43-.25H14l.49.29.06,0Z"/></g><g class="cls-4"><path class="cls-5" d="M14.49,17.84s0,0,0,0l-.43.25H14l-.47-.27-.06,0L13,17.56s0,0,0,0l.43-.25h.06l.43.25.06,0Z"/></g><g class="cls-4"><path class="cls-5" d="M13.92,18.17s0,0,0,0l-.43.25h-.06l-.88-.52-.06,0-.21-.12-.06,0L12,17.62s0,0,0,0l.43-.25h.06l.21.12.06,0,.21.12.06,0Z"/></g><g class="cls-4"><path class="cls-5" d="M12.24,17.85s0,0,0,0l-.43.25h-.06l-.48-.28s0,0,0,0l.43-.25h.06Z"/></g><g class="cls-4"><path class="cls-5" d="M13.35,18.5s0,0,0,0l-.43.25h-.06l-.58-.34-.06,0-.12-.07-.06,0-.12-.07s0,0,0,0l.43-.25h.06l.12.07.06,0,.12.07.06,0Z"/></g><path class="cls-5" d="M4.18,13.84s0,0,0,0l-.43.25H3.69l-.46-.27s0,0,0,0l.43-.25h.06Z"/><path class="cls-5" d="M4.84,14.23s0,0,0,0l-.43.25H4.35l-.48-.28s0,0,0,0l.43-.25h.06Z"/><path class="cls-5" d="M5.49,14.61s0,0,0,0l-.43.25H5l-.48-.28s0,0,0,0L5,14.33H5Z"/><path class="cls-5" d="M6.14,15s0,0,0,0l-.43.25H5.65L5.18,15s0,0,0,0l.43-.25h.06Z"/><path class="cls-5" d="M10.17,17.35s0,0,0,0l-.43.25H9.68L5.81,15.36s0,0,0,0l.43-.25H6.3Z"/><path class="cls-5" d="M10.78,17.7s0,0,0,0l-.43.25h-.06l-.48-.28s0,0,0,0l.43-.25h.06Z"/><g class="cls-4"><path class="cls-5" d="M11.43,18.08s0,0,0,0l-.43.25h-.06l-.48-.28s0,0,0,0l.43-.25H11Z"/></g><g class="cls-4"><path class="cls-5" d="M12.09,18.47s0,0,0,0l-.17.1h-.06l-.48-.28s0,0,0,0l.17-.1h.06Z"/></g><g class="cls-4"><path class="cls-5" d="M11.82,18.62s0,0,0,0l-.17.1H11.6l-.48-.28s0,0,0,0l.17-.1h.06Z"/></g><path class="cls-5" d="M12.74,18.85s0,0,0,0l-.43.25h-.06l-.48-.28s0,0,0,0l.43-.25h.06Z"/><polygon class="cls-6" points="20.13 10.12 10.4 11.34 0.49 5.62 2.6 0 20.13 10.12"/><polygon class="cls-7" points="20.13 10.12 10.4 11.35 10.47 19.24 20.13 21.41 20.13 10.12"/><polygon class="cls-1" points="4.93 14.47 0.41 11.8 0.41 13.27 10.59 19.24 10.59 19.67 10.91 19.48 10.91 18.04 4.91 14.47 4.93 14.47"/><polygon class="cls-1" points="8.16 19.86 8.76 19.52 8.76 19.04 8.16 19.37 8.16 19.86"/><polygon class="cls-1" points="7.38 18.22 6.79 18.56 6.79 17.43 7.38 17.78 7.38 18.22"/><polygon class="cls-1" points="8.76 19.04 8.16 19.37 2.43 15.99 3.03 15.65 8.76 19.04"/><polygon class="cls-8" points="0.36 4.82 0 4.98 0 4.99 10.58 11.21 10.91 11.02 0.36 4.82"/><polygon class="cls-8" points="10.91 11.02 10.88 11 10.55 11.21 10.58 11.21 10.58 18.21 10.91 18.04 10.91 11.02"/><polygon class="cls-9" points="10.59 11.2 0 4.98 0 11.98 10.59 18.21 10.59 11.2"/><polygon class="cls-9" points="0.37 12.21 0.37 5.69 10.13 11.43 10.13 17.95 0.37 12.21"/><polygon class="cls-3" points="10.59 19.67 10.59 18.21 0 11.98 0 13.45 3.81 15.68 3.81 16.8 2.43 15.99 2.43 16.47 8.16 19.86 8.16 19.37 6.79 18.56 6.79 17.43 10.59 19.67"/></g></g></svg>