<svg xmlns="http://www.w3.org/2000/svg" viewBox="0 0 15.29 18.68"><defs><style>.cls-1{fill:#bdc3c7;}.cls-2{fill:#262626;}.cls-3{fill:#2b2b2b;}.cls-4{fill:#3498db;}.cls-5{fill:#ecf0f1;}.cls-6{fill:#ffa800;}.cls-7{fill:#bcbec0;}.cls-8{fill:#e2e2e2;}.cls-9{isolation:isolate;}.cls-10{fill:#7f8b8c;}</style></defs><title>Ресурс 9</title><g id="Слой_2" data-name="Слой 2"><g id="Layer_1" data-name="Layer 1"><polygon class="cls-1" points="9.71 9 5.49 6.52 5.49 7.88 14.99 13.46 14.99 13.86 15.29 13.68 15.29 12.34 9.69 9 9.71 9"/><polygon class="cls-1" points="12.73 14.04 13.28 13.72 13.28 13.27 12.73 13.58 12.73 14.04"/><polygon class="cls-1" points="12 12.51 11.44 12.82 11.44 11.77 12 12.1 12 12.51"/><polygon class="cls-1" points="13.28 13.27 12.73 13.58 7.38 10.42 7.93 10.11 13.28 13.27"/><polygon class="cls-2" points="5.45 0 5.11 0.15 5.11 0.16 14.99 5.96 15.29 5.79 5.45 0"/><polygon class="cls-2" points="15.29 5.79 15.26 5.77 14.96 5.96 14.99 5.96 14.99 12.5 15.29 12.34 15.29 5.79"/><polygon class="cls-3" points="14.99 5.96 5.11 0.15 5.11 6.69 14.99 12.49 14.99 5.96"/><polygon class="cls-4" points="5.45 6.89 5.45 0.81 14.57 6.17 14.57 12.26 5.45 6.89"/><polygon class="cls-5" points="14.99 13.86 14.99 12.49 5.11 6.69 5.11 8.05 8.66 10.14 8.66 11.18 7.38 10.42 7.38 10.88 12.73 14.04 12.73 13.58 11.44 12.82 11.44 11.77 14.99 13.86"/><polygon class="cls-5" points="5.45 1.28 5.45 0.81 14.57 6.17 14.57 6.64 5.45 1.28"/><polygon class="cls-6" points="14.01 6.17 14.27 6.04 14.31 6.11 14.05 6.24 14.01 6.17"/><polygon class="cls-6" points="14.31 6.34 14.05 5.91 14.01 5.93 14.27 6.37 14.31 6.34"/><polygon class="cls-6" points="13.79 6.08 13.44 5.87 13.44 5.81 13.79 6.01 13.79 6.08"/><polygon class="cls-5" points="8.56 8.3 5.88 6.76 5.88 2.08 8.56 3.62 8.56 8.3"/><polygon class="cls-5" points="14.11 11.51 12.73 10.71 12.73 6.03 14.11 6.83 14.11 11.51"/><polygon class="cls-5" points="12.34 6.94 8.97 5 8.97 3.86 12.34 5.81 12.34 6.94"/><polygon class="cls-5" points="12.34 7.66 9.01 5.74 9.01 5.55 12.34 7.47 12.34 7.66"/><polygon class="cls-5" points="12.34 8.14 9.01 6.21 9.01 6.02 12.34 7.95 12.34 8.14"/><polygon class="cls-5" points="12.34 8.61 9.01 6.69 9.01 6.5 12.34 8.42 12.34 8.61"/><polygon class="cls-5" points="12.34 9.08 9.01 7.16 9.01 6.97 12.34 8.89 12.34 9.08"/><polygon class="cls-5" points="12.34 9.55 9.01 7.63 9.01 7.44 12.34 9.37 12.34 9.55"/><polygon class="cls-5" points="12.34 10.03 9.01 8.11 9.01 7.92 12.34 9.84 12.34 10.03"/><polygon class="cls-5" points="12.34 10.5 9.01 8.58 9.01 8.39 12.34 10.31 12.34 10.5"/><polygon class="cls-1" points="9.25 17.93 0 12.59 4.24 10.23 13.49 15.57 9.25 17.93"/><polygon class="cls-7" points="0 12.37 0 12.59 0.26 12.64 0.45 12.43 0 12.37"/><polygon class="cls-7" points="13.49 15.35 13.49 15.57 13.18 15.5 13.49 15.35"/><polygon class="cls-5" points="9.25 17.71 0 12.37 4.24 10.01 13.49 15.35 9.25 17.71"/><path class="cls-1" d="M13.54,18.32a2.45,2.45,0,0,1-2.17.18c-.51-.29-.37-.85.32-1.25a2.45,2.45,0,0,1,2.17-.18C14.36,17.36,14.22,17.92,13.54,18.32Z"/><polygon class="cls-7" points="14.16 17.2 14.16 17.58 13.89 17.58 14.16 17.2"/><polygon class="cls-7" points="11.06 17.74 11.06 18.08 11.25 18.08 11.39 17.94 11.06 17.74"/><path class="cls-8" d="M13.54,18a2.45,2.45,0,0,1-2.17.18c-.51-.29-.37-.85.32-1.25a2.45,2.45,0,0,1,2.17-.18C14.36,17,14.22,17.59,13.54,18Z"/><path class="cls-1" d="M12.7,17.4h0a.07.07,0,0,1,0-.13l.55-.32a.25.25,0,0,1,.22,0h0a.07.07,0,0,1,0,.13l-.55.32A.25.25,0,0,1,12.7,17.4Z"/><path class="cls-1" d="M13.85,16.74l0,0-.45.26,0,.08.5-.29Z"/><path class="cls-2" d="M13.37,17l-.2.11h0l-.2.12h0l-.15,0v.13h0l0,0h0a.11.11,0,0,0,.1,0l.39-.23h0Z"/><path class="cls-3" d="M12.87,17.21s0,0,0-.05l.39-.23a.11.11,0,0,1,.1,0s0,0,0,.06l-.39.23a.11.11,0,0,1-.1,0Z"/><g class="cls-9"><path class="cls-10" d="M4.54,10.85s0,0,0,0l-.3.17H4.18l-.54-.32s0,0,0,0l.3-.17H4Z"/></g><g class="cls-9"><path class="cls-10" d="M5.14,11.2s0,0,0,0l-.3.17H4.79l-.44-.26s0,0,0,0l.3-.17H4.7Z"/></g><g class="cls-9"><path class="cls-10" d="M5.74,11.55s0,0,0,0l-.3.17H5.39l-.44-.26s0,0,0,0l.3-.17H5.3Z"/></g><g class="cls-9"><path class="cls-10" d="M6.34,11.9s0,0,0,0l-.3.17H6l-.44-.26s0,0,0,0l.3-.17H5.9Z"/></g><g class="cls-9"><path class="cls-10" d="M6.94,12.25s0,0,0,0l-.3.17H6.59l-.44-.26s0,0,0,0l.3-.17H6.5Z"/></g><g class="cls-9"><path class="cls-10" d="M7.54,12.6s0,0,0,0l-.3.17H7.19l-.44-.26s0,0,0,0l.3-.17H7.1Z"/></g><g class="cls-9"><path class="cls-10" d="M8.15,13s0,0,0,0l-.3.17H7.79l-.44-.26s0,0,0,0l.3-.17h.06Z"/></g><g class="cls-9"><path class="cls-10" d="M8.75,13.31s0,0,0,0l-.3.17H8.39L8,13.25s0,0,0,0l.3-.17h.06Z"/></g><g class="cls-9"><path class="cls-10" d="M9.35,13.66s0,0,0,0l-.3.17H9l-.44-.26s0,0,0,0l.3-.17h.06Z"/></g><g class="cls-9"><path class="cls-10" d="M9.95,14s0,0,0,0l-.3.17H9.59L9.15,14s0,0,0,0l.3-.17h.06Z"/></g><g class="cls-9"><path class="cls-10" d="M10.55,14.36s0,0,0,0l-.3.17H10.2l-.44-.26s0,0,0,0l.3-.17h.06Z"/></g><g class="cls-9"><path class="cls-10" d="M11.15,14.71s0,0,0,0l-.3.17H10.8l-.44-.26s0,0,0,0l.3-.17h.06Z"/></g><g class="cls-9"><path class="cls-10" d="M11.75,15.06s0,0,0,0l-.3.17H11.4L11,15s0,0,0,0l.3-.17h.06Z"/></g><g class="cls-9"><path class="cls-10" d="M12.41,15.45s0,0,0,0l-.3.17h-.06l-.56-.33s0,0,0,0l.3-.17h.06Z"/></g><g class="cls-9"><path class="cls-10" d="M4.09,11.1s0,0,0,0l-.4.23H3.64L3.09,11s0,0,0,0l.4-.23h.06Z"/></g><g class="cls-9"><path class="cls-10" d="M4.7,11.46s0,0,0,0l-.4.23H4.25l-.45-.26s0,0,0,0l.4-.23h.06Z"/></g><g class="cls-9"><path class="cls-10" d="M5.31,11.81s0,0,0,0l-.4.23H4.86l-.45-.26s0,0,0,0l.4-.23h.06Z"/></g><g class="cls-9"><path class="cls-10" d="M5.92,12.17s0,0,0,0l-.4.23H5.47L5,12.17s0,0,0,0l.4-.23h.06Z"/></g><g class="cls-9"><path class="cls-10" d="M6.53,12.53s0,0,0,0l-.4.23H6.07l-.45-.26s0,0,0,0l.4-.23h.06Z"/></g><g class="cls-9"><path class="cls-10" d="M7.14,12.88s0,0,0,0l-.4.23H6.68l-.45-.26s0,0,0,0l.4-.23h.06Z"/></g><g class="cls-9"><path class="cls-10" d="M7.75,13.24s0,0,0,0l-.4.23H7.29l-.45-.26s0,0,0,0l.4-.23H7.3Z"/></g><g class="cls-9"><path class="cls-10" d="M8.36,13.59s0,0,0,0l-.4.23H7.9l-.45-.26s0,0,0,0l.4-.23h.06Z"/></g><g class="cls-9"><path class="cls-10" d="M9,14s0,0,0,0l-.4.23H8.51L8.06,14s0,0,0,0l.4-.23h.06Z"/></g><g class="cls-9"><path class="cls-10" d="M9.58,14.31s0,0,0,0l-.4.23H9.12l-.45-.26s0,0,0,0l.4-.23h.06Z"/></g><g class="cls-9"><path class="cls-10" d="M10.19,14.66s0,0,0,0l-.4.23H9.73l-.45-.26s0,0,0,0l.4-.23h.06Z"/></g><g class="cls-9"><path class="cls-10" d="M10.8,15s0,0,0,0l-.4.23h-.06L9.89,15s0,0,0,0l.4-.23h.06Z"/></g><g class="cls-9"><path class="cls-10" d="M3.66,11.47s0,0,0,0l-.4.23H3.21l-.65-.38s0,0,0,0l.4-.23H3Z"/></g><g class="cls-9"><path class="cls-10" d="M4.28,11.83s0,0,0,0l-.4.23H3.82l-.45-.26s0,0,0,0l.4-.23h.06Z"/></g><g class="cls-9"><path class="cls-10" d="M3.25,11.85s0,0,0,0l-.4.23H2.79L2,11.66s0,0,0,0l.4-.23h.06Z"/></g><g class="cls-9"><path class="cls-10" d="M4.89,12.19s0,0,0,0l-.4.23H4.43L4,12.19s0,0,0,0l.4-.23h.06Z"/></g><g class="cls-9"><path class="cls-10" d="M5.5,12.55s0,0,0,0l-.4.23H5l-.45-.26s0,0,0,0l.4-.23h.06Z"/></g><g class="cls-9"><path class="cls-10" d="M6.11,12.9s0,0,0,0l-.4.23H5.65L5.2,12.9s0,0,0,0l.4-.23h.06Z"/></g><g class="cls-9"><path class="cls-10" d="M6.72,13.26s0,0,0,0l-.4.23H6.26l-.45-.26s0,0,0,0l.4-.23h.06Z"/></g><g class="cls-9"><path class="cls-10" d="M7.33,13.61s0,0,0,0l-.4.23H6.87l-.45-.26s0,0,0,0l.4-.23h.06Z"/></g><g class="cls-9"><path class="cls-10" d="M7.94,14s0,0,0,0l-.4.23H7.48L7,14s0,0,0,0l.4-.23h.06Z"/></g><g class="cls-9"><path class="cls-10" d="M8.55,14.33s0,0,0,0l-.4.23H8.09l-.45-.26s0,0,0,0l.4-.23H8.1Z"/></g><g class="cls-9"><path class="cls-10" d="M9.15,14.68s0,0,0,0l-.4.23H8.7l-.45-.26s0,0,0,0l.4-.23h.06Z"/></g><g class="cls-9"><path class="cls-10" d="M9.76,15s0,0,0,0l-.4.23H9.31L8.86,15s0,0,0,0l.4-.23h.06Z"/></g><g class="cls-9"><path class="cls-10" d="M10.37,15.4s0,0,0,0l-.4.23H9.92l-.45-.26s0,0,0,0l.4-.23h.06Z"/></g><g class="cls-9"><path class="cls-10" d="M3.86,12.21s0,0,0,0l-.4.23H3.4L3,12.21s0,0,0,0l.4-.23h.06Z"/></g><g class="cls-9"><path class="cls-10" d="M4.47,12.57s0,0,0,0l-.4.23H4l-.45-.26s0,0,0,0L4,12.3H4Z"/></g><g class="cls-9"><path class="cls-10" d="M5.08,12.92s0,0,0,0l-.4.23H4.62l-.45-.26s0,0,0,0l.4-.23h.06Z"/></g><g class="cls-9"><path class="cls-10" d="M5.69,13.28s0,0,0,0l-.4.23H5.23l-.45-.26s0,0,0,0l.4-.23h.06Z"/></g><g class="cls-9"><path class="cls-10" d="M6.29,13.63s0,0,0,0l-.4.23H5.84l-.45-.26s0,0,0,0l.4-.23h.06Z"/></g><g class="cls-9"><path class="cls-10" d="M6.9,14s0,0,0,0l-.4.23H6.45L6,14s0,0,0,0l.4-.23h.06Z"/></g><g class="cls-9"><path class="cls-10" d="M7.51,14.35s0,0,0,0l-.4.23H7.06l-.45-.26s0,0,0,0l.4-.23h.06Z"/></g><g class="cls-9"><path class="cls-10" d="M8.12,14.7s0,0,0,0l-.4.23H7.67l-.45-.26s0,0,0,0l.4-.23h.06Z"/></g><g class="cls-9"><path class="cls-10" d="M8.73,15.06s0,0,0,0l-.4.23H8.27l-.45-.26s0,0,0,0l.4-.23h.06Z"/></g><g class="cls-9"><path class="cls-10" d="M9.34,15.42s0,0,0,0l-.4.23H8.88l-.45-.26s0,0,0,0l.4-.23h.06Z"/></g><g class="cls-9"><path class="cls-10" d="M2.62,12.1s0,0,0,0l-.4.23H2.16L1.48,12s0,0,0,0l.4-.23h.06Z"/></g><g class="cls-9"><path class="cls-10" d="M3.23,12.46s0,0,0,0l-.4.23H2.77l-.45-.26s0,0,0,0l.4-.23h.06Z"/></g><g class="cls-9"><path class="cls-10" d="M3.84,12.82s0,0,0,0l-.4.23H3.38l-.45-.26s0,0,0,0l.4-.23h.06Z"/></g><g class="cls-9"><path class="cls-10" d="M4.45,13.17s0,0,0,0l-.4.23H4l-.45-.26s0,0,0,0l.4-.23H4Z"/></g><g class="cls-9"><path class="cls-10" d="M5.06,13.53s0,0,0,0l-.4.23H4.6l-.45-.26s0,0,0,0l.4-.23h.06Z"/></g><g class="cls-9"><path class="cls-10" d="M5.67,13.89s0,0,0,0l-.4.23H5.21l-.45-.26s0,0,0,0l.4-.23h.06Z"/></g><g class="cls-9"><path class="cls-10" d="M6.28,14.24s0,0,0,0l-.4.23H5.82l-.45-.26s0,0,0,0l.4-.23h.06Z"/></g><g class="cls-9"><path class="cls-10" d="M6.89,14.6s0,0,0,0l-.4.23H6.43L6,14.6s0,0,0,0l.4-.23h.06Z"/></g><g class="cls-9"><path class="cls-10" d="M7.49,15s0,0,0,0l-.4.23H7L6.59,15s0,0,0,0l.4-.23H7Z"/></g><g class="cls-9"><path class="cls-10" d="M8.1,15.31s0,0,0,0l-.4.23H7.65l-.45-.26s0,0,0,0L7.6,15h.06Z"/></g><g class="cls-9"><path class="cls-10" d="M8.71,15.67s0,0,0,0l-.4.23H8.26l-.45-.26s0,0,0,0l.4-.23h.06Z"/></g><g class="cls-9"><path class="cls-10" d="M12,15.7s0,0,0,0l-.4.23h-.06l-.5-.29-.06,0-.46-.27s0,0,0,0l.4-.23H11l.46.27.06,0Z"/></g><g class="cls-9"><path class="cls-10" d="M11.43,16s0,0,0,0l-.4.23H11L10.54,16l-.06,0-.4-.23s0,0,0,0l.4-.23h.06l.4.23.06,0Z"/></g><g class="cls-9"><path class="cls-10" d="M10.89,16.32s0,0,0,0l-.4.23h-.06l-.82-.48-.06,0L9.36,16l-.06,0-.2-.11s0,0,0,0l.4-.23h.06l.2.11.06,0,.2.11.06,0Z"/></g><g class="cls-9"><path class="cls-10" d="M9.32,16s0,0,0,0l-.4.23H8.87L8.42,16s0,0,0,0l.4-.23h.06Z"/></g><g class="cls-9"><path class="cls-10" d="M10.36,16.63s0,0,0,0l-.4.23H9.9l-.54-.31-.06,0-.11-.07-.06,0L9,16.38s0,0,0,0l.4-.23h.06l.11.07.06,0,.11.07.06,0Z"/></g><path class="cls-10" d="M1.8,12.28s0,0,0,0l-.4.23H1.34l-.43-.25s0,0,0,0l.4-.23h.06Z"/><path class="cls-10" d="M2.42,12.65s0,0,0,0l-.4.23H2l-.45-.26s0,0,0,0l.4-.23H2Z"/><path class="cls-10" d="M3,13s0,0,0,0l-.4.23H2.57L2.12,13s0,0,0,0l.4-.23h.06Z"/><path class="cls-10" d="M3.64,13.36s0,0,0,0l-.4.23H3.18l-.45-.26s0,0,0,0l.4-.23h.06Z"/><path class="cls-10" d="M7.4,15.56s0,0,0,0l-.4.23H6.94L3.32,13.7s0,0,0,0l.4-.23h.06Z"/><path class="cls-10" d="M8,15.89s0,0,0,0l-.4.23H7.51l-.45-.26s0,0,0,0l.4-.23h.06Z"/><g class="cls-9"><path class="cls-10" d="M8.57,16.24s0,0,0,0l-.4.23H8.12l-.45-.26s0,0,0,0l.4-.23h.06Z"/></g><g class="cls-9"><path class="cls-10" d="M9.18,16.6s0,0,0,0L9,16.72H9l-.45-.26s0,0,0,0l.16-.09h.06Z"/></g><g class="cls-9"><path class="cls-10" d="M8.94,16.74s0,0,0,0l-.16.09H8.73l-.45-.26s0,0,0,0l.16-.09h.06Z"/></g><path class="cls-10" d="M9.79,17s0,0,0,0l-.4.23H9.34L8.89,17s0,0,0,0l.4-.23h.06Z"/></g></g></svg>