<svg xmlns="http://www.w3.org/2000/svg" viewBox="0 0 5.98 5.6"><defs><style>.cls-1{fill:#ef2626;opacity:0.6;}.cls-2{fill:#b8853b;}.cls-3{fill:#f6e4c0;}.cls-4{fill:#996a29;}.cls-5{fill:#805d29;}.cls-6{fill:#de8b14;}.cls-7{fill:#fac77d;}.cls-8{fill:#e49829;}.cls-9{fill:#7d5a28;}.cls-10{fill:#a6732c;}.cls-11{fill:#b4935e;}.cls-12{fill:#e4a549;}.cls-13{fill:#dea047;}.cls-14{fill:#bd883d;}.cls-15{fill:#cf9542;}.cls-16{fill:#ad4415;}.cls-17{fill:#c64207;}.cls-18{fill:#f6c96b;}</style></defs><title>Ресурс 12</title><g id="Слой_2" data-name="Слой 2"><g id="Layer_1" data-name="Layer 1"><path class="cls-1" d="M5.18,5.14a4.26,4.26,0,0,1-3.86,0,1.18,1.18,0,0,1,0-2.23,4.26,4.26,0,0,1,3.86,0A1.18,1.18,0,0,1,5.18,5.14Z"/><path class="cls-2" d="M4.55,3.66h0L4.5,3.44h0v0h0l-.06.09v0h0l-.08.06h0a1.4,1.4,0,0,1-.49.19A2.66,2.66,0,0,1,3.27,4H3.15a2.8,2.8,0,0,1-.66-.1l-.22-.07-.19-.1a.55.55,0,0,0,.2.22,1.82,1.82,0,0,0,1,.28A2.19,2.19,0,0,0,4,4a1.82,1.82,0,0,0,.51-.23V3.74h0a.15.15,0,0,0,0,0A.17.17,0,0,0,4.55,3.66Z"/><path class="cls-3" d="M4.56,3.74h0Z"/><path class="cls-4" d="M3.28,4.19a1.82,1.82,0,0,1-1-.28.55.55,0,0,1-.2-.22L2,3.64l0,0,0,0,0,0v0h0l0,.12v.05h0v0a.65.65,0,0,0,0,.1h0l0,0,0,0H2L2,4h0a1.5,1.5,0,0,0,.49.19,3,3,0,0,0,.67.07,3,3,0,0,0,.67-.07A1.45,1.45,0,0,0,4.37,4L4.44,4h0l.05-.07h0V3.8A1.82,1.82,0,0,1,4,4,2.19,2.19,0,0,1,3.28,4.19Z"/><path class="cls-5" d="M4.47,4h0L4.37,4a1.45,1.45,0,0,1-.48.19,3,3,0,0,1-.67.07,3,3,0,0,1-.67-.07A1.5,1.5,0,0,1,2.07,4H2L2,4H1.94l0,0,0,0a.76.76,0,0,0,.17.29,1.26,1.26,0,0,0,.49.31,2,2,0,0,0,1.33,0,1.23,1.23,0,0,0,.48-.31.74.74,0,0,0,.17-.29l-.05.07Z"/><path class="cls-6" d="M4,3.37a.28.28,0,0,1-.14-.13c.06.24.16.61.44.44.12-.07.11-.24.06-.41A.41.41,0,0,1,4,3.37Z"/><path class="cls-7" d="M2.22,1.09a.27.27,0,0,0,0,.08.21.21,0,0,0,0,.1v0l0,.05v0h0l0,0h0l.05,0,.15.07h0l.14,0a2.12,2.12,0,0,0,.52.06h.12a2,2,0,0,0,.39-.06A1.26,1.26,0,0,0,4,1.53l.11-.07.06,0h0l0-.07h0v0a.23.23,0,0,0,0-.18A.53.53,0,0,0,4,.94a1.15,1.15,0,0,0-.25-.1L3.51.78l-.29,0-.29,0L2.64.84a1.13,1.13,0,0,0-.25.1L2.3,1h0Zm.1,0,0-.05L2.47,1,2.7.9,3,.85l.27,0,.27,0,.26,0L4,1a.47.47,0,0,1,.15.12.18.18,0,0,1,0,.15v0h0l0,.06h0L4,1.42H4L4,1.46l-.06,0-.2.06h0l-.3,0H3.23a2.1,2.1,0,0,1-.47-.05l-.14,0L2.5,1.46l-.08,0h0l0,0h0v0l0,0v0A.18.18,0,0,1,2.32,1.11Z"/><path class="cls-8" d="M3.62,2.31c.07.28.11.55.2.83l0,.11A.28.28,0,0,0,4,3.37a.41.41,0,0,0,.37-.1c0-.15-.11-.3-.14-.39L4.06,2.5c0-.1-.07-.21-.11-.32l-.24.1Z"/><path class="cls-9" d="M2.29,1.27l0,0v0h0l0,0h0l.08,0h0c0-.16.28-.29.64-.31h.12c.4,0,.72.12.76.28H4l.05,0h0l0-.06h0v0a.18.18,0,0,0,0-.15A.47.47,0,0,0,4,1L3.75.9l-.26,0-.27,0L3,.85,2.7.9,2.47,1l-.1.07,0,.05a.18.18,0,0,0,0,.15Z"/><path class="cls-10" d="M3.74,1.79a2.3,2.3,0,0,1-.51.06h-.1a2.24,2.24,0,0,1-.42-.05l-.22-.07a.67.67,0,0,0,.58.35,1.55,1.55,0,0,0,1-.25h0l0,0,0-.14,0,0A1.13,1.13,0,0,1,3.74,1.79Z"/><path class="cls-2" d="M2.49,2.21l.19.07.14,0,.26,0h.34l.19,0,.09,0,.24-.1.13-.09.05,0h0l-.06-.23h0l0,0,0,0L4,2a.88.88,0,0,1-.32.17,1.43,1.43,0,0,1-.43.06,1.44,1.44,0,0,1-.43-.06A.9.9,0,0,1,2.47,2l0,0,0,0h0l-.06.24h0A.85.85,0,0,0,2.49,2.21Z"/><path class="cls-4" d="M2.42,1.91l0,0a.9.9,0,0,0,.32.17,1.44,1.44,0,0,0,.43.06,1.43,1.43,0,0,0,.43-.06A.88.88,0,0,0,4,2l0,0,0,0,0,0a1.55,1.55,0,0,1-1,.25.67.67,0,0,1-.58-.35l-.15-.08h0l0,0,0,.15,0,0,0,0h0Z"/><path class="cls-11" d="M3.26,1.14H3.14c-.36,0-.64.15-.64.31h0l.12.05.14,0a2.1,2.1,0,0,0,.47.05h.12l.3,0h0l.2-.06.06,0,.05,0C4,1.27,3.66,1.14,3.26,1.14Z"/><path class="cls-8" d="M3.08,2.35c0,.21,0,.43,0,.64s.11.76.47.58a4.39,4.39,0,0,0,0-.44l0-.41c0-.13,0-.26,0-.39H3.08Z"/><path class="cls-6" d="M3.05,3c0,.09,0,.19,0,.28s0,.67.22.67h.09c.13,0,.17-.19.17-.35C3.16,3.75,3.06,3.27,3.05,3Z"/><path class="cls-8" d="M2.49,2.21l-.08.28h0c0,.16-.21,1.25.18,1.11a2.76,2.76,0,0,0,.11-.54l.05-.4c0-.12,0-.23.05-.34l-.14,0Z"/><path class="cls-6" d="M2.42,2.49h0c-.06.2-.12.4-.17.6s-.18.6,0,.69l.12,0c.1,0,.17-.09.21-.2C2.21,3.74,2.38,2.66,2.42,2.49Z"/><path class="cls-11" d="M2.46,1.54l.07,0L2.38,1.5Z"/><path class="cls-12" d="M2.08,3.69l.19.1.22.07a2.8,2.8,0,0,0,.66.1h.12a2.66,2.66,0,0,0,.55-.06,1.4,1.4,0,0,0,.49-.19h0l.08-.06h0v0l.06-.09h0v0h0v0L4.14,2h0l-.05,0-.13.09c0,.1.07.21.11.32l.15.38c0,.09.1.24.14.39s.05.33-.06.41c-.28.17-.38-.2-.44-.44l0-.11c-.08-.27-.13-.55-.2-.83l-.19,0c0,.13,0,.26,0,.39l0,.41a4.39,4.39,0,0,1,0,.44c0,.17,0,.31-.17.35H3.27c-.27,0-.21-.47-.22-.67s0-.19,0-.28,0-.42,0-.64l-.26,0c0,.11,0,.23-.05.34l-.05.4a2.76,2.76,0,0,1-.11.54c0,.11-.11.2-.21.2l-.12,0c-.21-.09-.06-.5,0-.69s.11-.41.17-.6l.08-.28a.85.85,0,0,1-.18-.12h0L2,3.22A1,1,0,0,0,2.08,3.69Z"/><path class="cls-12" d="M2.32,1.63h0l.15.08.22.07a2.24,2.24,0,0,0,.42.05h.1a2.3,2.3,0,0,0,.51-.06,1.13,1.13,0,0,0,.37-.15l0,0,.1-.33h0l0,.07h0l-.06,0L4,1.53a1.26,1.26,0,0,1-.26.1,2,2,0,0,1-.39.06H3.22a2.12,2.12,0,0,1-.52-.06l-.14,0h0l-.07,0-.08,0-.05,0h0l0,0h0v0l0-.05,0,.13.05.18,0,0Z"/><path class="cls-13" d="M2.14,1h0a.31.31,0,0,0-.12.1l.2.08a.27.27,0,0,1,0-.08L2.29,1,2.18,1h0Z"/><path class="cls-14" d="M2.18,1.27a.21.21,0,0,1,0-.1L2,1.08H2a.3.3,0,0,0,0,.13h0a.15.15,0,0,0,0,.06l.28.14,0-.13Z"/><path class="cls-15" d="M1.93,3.57l0,0,0,0,0,0,.07.05A1,1,0,0,1,2,3.22l0,.17,0,.16h0Z"/><path class="cls-16" d="M2,1.1H2L1.76,1,1.09.7.75.56A1,1,0,0,1,.28.28.16.16,0,0,1,.43,0L.31,0A.3.3,0,0,0,0,.27c0,.32.34.3.56.37l.52.23h0l.83.37h0A.24.24,0,0,1,2,1.1Z"/><path class="cls-17" d="M2,1.1a.24.24,0,0,0,0,.13A.3.3,0,0,1,2,1.1Z"/><polygon class="cls-3" points="1.87 3.73 1.88 3.73 1.88 3.73 1.87 3.73"/><path class="cls-18" d="M1.32.53,1.06.41l.23.13Z"/><path class="cls-17" d="M.28.28A1,1,0,0,0,.75.56L1.09.7,1.76,1,2,1.08A.29.29,0,0,1,2.11,1h0L1.46.6,1.32.53h0L1.06.41h0L1,.36.64.16A1.27,1.27,0,0,0,.43,0,.16.16,0,0,0,.28.28Z"/></g></g></svg>