<svg xmlns="http://www.w3.org/2000/svg" viewBox="0 0 3.9 3.92"><defs><style>.cls-1{fill:#b8853b;}.cls-2{fill:#f6e4c0;}.cls-3{fill:#996a29;}.cls-4{fill:#805d29;}.cls-5{fill:#de8b14;}.cls-6{fill:#fac77d;}.cls-7{fill:#e49829;}.cls-8{fill:#7d5a28;}.cls-9{fill:#a6732c;}.cls-10{fill:#b4935e;}.cls-11{fill:#e4a549;}.cls-12{fill:#dea047;}.cls-13{fill:#bd883d;}.cls-14{fill:#cf9542;}.cls-15{fill:#ad4415;}.cls-16{fill:#c64207;}.cls-17{fill:#f6c96b;}</style></defs><title>stove</title><g id="Слой_2" data-name="Слой 2"><g id="Layer_1" data-name="Layer 1"><g id="g7376"><g id="g7126"><g id="g6105"><g id="g6103"><g id="g6101"><path class="cls-1" d="M3.9,3.14h0l0-.19h0V3h0l0,.07h0l-.06.05h0a1.2,1.2,0,0,1-.42.16,2.28,2.28,0,0,1-.47.05h-.1a2.4,2.4,0,0,1-.57-.08l-.18-.06-.16-.08a.47.47,0,0,0,.17.19,1.56,1.56,0,0,0,.86.24,1.87,1.87,0,0,0,.65-.13,1.55,1.55,0,0,0,.44-.2V3.2h0a.13.13,0,0,0,0,0Z"/><polygon class="cls-2" points="3.9 3.2 3.9 3.19 3.9 3.2 3.9 3.2"/><path class="cls-3" d="M2.81,3.58a1.56,1.56,0,0,1-.86-.24.47.47,0,0,1-.17-.19l-.06,0h0l0,0h0l0,.1v0h0v0a.56.56,0,0,0,0,.08h0l0,0,0,0h.05l0,0h0a1.28,1.28,0,0,0,.42.16,2.57,2.57,0,0,0,.57.06,2.54,2.54,0,0,0,.57-.06,1.24,1.24,0,0,0,.41-.16l.06,0h0l0-.06h0V3.26a1.55,1.55,0,0,1-.44.2A1.87,1.87,0,0,1,2.81,3.58Z"/><path class="cls-4" d="M3.83,3.39h0l-.06,0a1.24,1.24,0,0,1-.41.16,2.54,2.54,0,0,1-.57.06,2.57,2.57,0,0,1-.57-.06,1.28,1.28,0,0,1-.42-.16h0l0,0H1.66l0,0,0,0a.65.65,0,0,0,.15.25,1.08,1.08,0,0,0,.42.27,1.67,1.67,0,0,0,1.14,0,1.05,1.05,0,0,0,.41-.27.64.64,0,0,0,.14-.24l0,.06Z"/><path class="cls-5" d="M3.41,2.89a.24.24,0,0,1-.12-.11c.06.21.14.52.38.37s.09-.2.06-.35A.35.35,0,0,1,3.41,2.89Z"/><path class="cls-6" d="M1.9.93l0,.07a.18.18,0,0,0,0,.09v0l0,0v0h0l0,0H2l0,0,.13.06h0l.12,0a1.82,1.82,0,0,0,.44.05h.11a1.71,1.71,0,0,0,.33,0l.22-.08.09-.06,0,0h0l0-.06h0v0a.2.2,0,0,0,0-.15A.45.45,0,0,0,3.46.81L3.25.72,3,.67l-.25,0L2.5.67,2.26.72,2,.81,2,.86H2ZM2,.95l0,0L2.12.84,2.31.77l.22,0H3l.22,0L3.4.84a.4.4,0,0,1,.13.1.15.15,0,0,1,0,.13v0h0l0,0h0l0,0h0l0,0-.05,0-.17.06h0l-.26,0h-.1a1.8,1.8,0,0,1-.4,0l-.12,0-.11,0-.07,0H2l0,0H2v0l0,0v0A.15.15,0,0,1,2,.95Z"/><path class="cls-7" d="M3.1,2c.06.24.1.47.17.71l0,.1a.24.24,0,0,0,.12.11.35.35,0,0,0,.31-.08c0-.13-.09-.26-.12-.34l-.13-.33c0-.09-.06-.18-.1-.27L3.18,2Z"/><path class="cls-8" d="M2,1.09l0,0v0H2l0,0h0l.07,0h0c0-.13.24-.24.55-.27h.1c.34,0,.62.11.65.24h0l0,0h0l0,0h0v0a.15.15,0,0,0,0-.13A.4.4,0,0,0,3.4.84L3.21.77,3,.73H2.53l-.22,0L2.12.84,2,.9l0,0a.15.15,0,0,0,0,.13Z"/><path class="cls-9" d="M3.2,1.53a2,2,0,0,1-.44,0H2.68a1.91,1.91,0,0,1-.36,0l-.19-.06a.57.57,0,0,0,.49.3,1.33,1.33,0,0,0,.86-.22h0l0,0,0-.12,0,0A1,1,0,0,1,3.2,1.53Z"/><path class="cls-1" d="M2.13,1.89,2.29,2l.12,0,.23,0h.29L3.1,2l.08,0,.2-.08.11-.08,0,0h0l0-.2h0l0,0,0,0,0,0a.75.75,0,0,1-.27.15,1.22,1.22,0,0,1-.37.05,1.24,1.24,0,0,1-.37-.05.77.77,0,0,1-.28-.15l0,0,0,0H2L2,1.79H2Z"/><path class="cls-3" d="M2.07,1.63l0,0a.77.77,0,0,0,.28.15,1.24,1.24,0,0,0,.37.05,1.22,1.22,0,0,0,.37-.05.75.75,0,0,0,.27-.15l0,0,0,0,0,0a1.33,1.33,0,0,1-.86.22.57.57,0,0,1-.49-.3L2,1.41H2L2,1.5l0,0,0,0H2Z"/><path class="cls-10" d="M2.79,1h-.1c-.31,0-.55.13-.55.27h0l.11,0,.12,0a1.8,1.8,0,0,0,.4,0h.1l.26,0h0l.17-.06.05,0,0,0C3.41,1.09,3.13,1,2.79,1Z"/><path class="cls-7" d="M2.64,2c0,.18,0,.36,0,.55s.09.65.41.5a3.76,3.76,0,0,0,0-.38l0-.35c0-.11,0-.22,0-.33H2.64Z"/><path class="cls-5" d="M2.61,2.56c0,.08,0,.16,0,.24s0,.57.19.57h.07C3,3.33,3,3.2,3,3.06,2.7,3.21,2.62,2.8,2.61,2.56Z"/><path class="cls-7" d="M2.13,1.89l-.07.24h0c0,.14-.18,1.07.16.95a2.36,2.36,0,0,0,.09-.46l0-.35c0-.1,0-.19,0-.29L2.29,2Z"/><path class="cls-5" d="M2.07,2.13h0c-.05.17-.1.34-.14.52s-.16.51,0,.59l.1,0c.09,0,.14-.08.18-.17C1.89,3.2,2,2.27,2.07,2.13Z"/><path class="cls-10" d="M2.11,1.32l.06,0L2,1.28Z"/><path class="cls-11" d="M1.78,3.16l.16.08.18.06a2.4,2.4,0,0,0,.57.08h.1a2.28,2.28,0,0,0,.47-.05,1.2,1.2,0,0,0,.42-.16h0l.06-.05h0l0-.07h0V3h0v0l-.3-1.17h0l0,0-.11.08c0,.09.06.18.1.27l.13.33c0,.08.08.21.12.34s0,.29-.06.35S3.35,3,3.29,2.78l0-.1c-.07-.24-.11-.47-.17-.71L2.93,2c0,.11,0,.22,0,.33l0,.35a3.76,3.76,0,0,1,0,.38c0,.14,0,.27-.15.3H2.8c-.23,0-.18-.4-.19-.57s0-.16,0-.24,0-.36,0-.55L2.41,2c0,.1,0,.19,0,.29l0,.35a2.36,2.36,0,0,1-.09.46c0,.1-.09.17-.18.17l-.1,0c-.18-.08-.05-.43,0-.59s.09-.35.14-.52l.07-.24L2,1.79H2l-.26,1A.81.81,0,0,0,1.78,3.16Z"/><path class="cls-11" d="M2,1.4H2l.13.07.19.06a1.91,1.91,0,0,0,.36,0h.08a2,2,0,0,0,.44,0,1,1,0,0,0,.32-.13l0,0,.09-.28h0l0,.06h0l0,0-.09.06-.22.08a1.71,1.71,0,0,1-.33,0H2.76a1.82,1.82,0,0,1-.44-.05l-.12,0h0l-.06,0L2,1.28l0,0H2l0,0h0v0l0,0,0,.11,0,.15H2Z"/><path class="cls-12" d="M1.83.83h0a.27.27,0,0,0-.1.09L1.87,1l0-.07L2,.87l-.09,0h0Z"/><path class="cls-13" d="M1.87,1.08a.18.18,0,0,1,0-.09L1.7.93h0a.25.25,0,0,0,0,.11h0a.13.13,0,0,0,0,0l.24.12,0-.11Z"/><path class="cls-14" d="M1.65,3.06l0,0h0l.06,0a.81.81,0,0,1-.07-.4l0,.14,0,.14h0Z"/><path class="cls-15" d="M1.69.94h0L1.51.84.94.6.65.48A.81.81,0,0,1,.24.24.14.14,0,0,1,.37,0L.26,0A.25.25,0,0,0,0,.23C0,.5.3.48.48.54l.44.2h0l.71.32h0A.2.2,0,0,1,1.69.94Z"/><path class="cls-16" d="M1.69.94a.2.2,0,0,0,0,.11A.25.25,0,0,1,1.69.94Z"/><polygon class="cls-2" points="1.6 3.19 1.6 3.19 1.6 3.19 1.6 3.19"/><path class="cls-17" d="M1.13.46.91.35l.2.11Z"/><path class="cls-16" d="M.24.24a.81.81,0,0,0,.4.24L.94.6l.57.23.2.09a.25.25,0,0,1,.1-.09h0L1.25.52,1.13.46h0L.91.35h0L.84.31.55.14A1.09,1.09,0,0,0,.37,0,.14.14,0,0,0,.24.24Z"/></g></g></g></g></g></g></g></svg>